<?xml version="1.0" encoding="utf-8"?>
<svg xmlns="http://www.w3.org/2000/svg" viewBox="7.85 11.052 874.3 309.897" width="874.3px" height="309.897px">
  <g transform="matrix(0.9999999999999999, 0, 0, 0.9999999999999999, -3.552713678800501e-15, 0)">
    <rect x="7.85" y="11.052" width="865.889" height="309.897" rx="15.191" class="s" style="stroke: rgb(15, 14, 18); stroke-width: 0.5; stroke-linecap: round; stroke-linejoin: round; stroke-miterlimit: 30; fill: rgb(174, 174, 174);"/>
  </g>
  <path d="M846.774 48.27a1.52 1.52 0 1 1 1.52 1.52 1.52 1.52 0 0 1-1.52-1.52z" class="f" style="fill: rgb(15, 14, 18);" transform="matrix(0.9999999999999999, 0, 0, 0.9999999999999999, -3.552713678800501e-15, 0)"/>
  <path d="M873.738 275.375h4.945a3.617 3.617 0 0 0 3.404-3.797h.063V248.79h-.062a3.617 3.617 0 0 0-3.405-3.797h-4.945z" class="s" style="stroke: rgb(15, 14, 18); stroke-width: 0.5; stroke-linecap: round; stroke-linejoin: round; stroke-miterlimit: 30; fill: rgb(248, 243, 242);" transform="matrix(0.9999999999999999, 0, 0, 0.9999999999999999, -3.552713678800501e-15, 0)"/>
  <path d="M849.205 169.19v-53.472a.91.91 0 1 0-1.823 0v53.472a.91.91 0 1 0 1.823 0z" class="s" style="fill: none; stroke: rgb(15, 14, 18); stroke-width: 0.5; stroke-linecap: round; stroke-linejoin: round; stroke-miterlimit: 30;" transform="matrix(0.9999999999999999, 0, 0, 0.9999999999999999, -3.552713678800501e-15, 0)"/>
  <rect x="837.356" y="285.746" width="23.451" height="10.897" rx="1.519" class="s" style="fill: none; stroke: rgb(15, 14, 18); stroke-width: 0.5; stroke-linecap: round; stroke-linejoin: round; stroke-miterlimit: 30;" transform="matrix(0.9999999999999999, 0, 0, 0.9999999999999999, -3.552713678800501e-15, 0)"/>
  <path d="M 814.608 201.598 Q 806.405 202.363 805.858 211.442 Q 806.295 220.629 814.498 221.176 Q 822.92 220.738 823.358 211.442 Q 822.92 202.254 814.608 201.598 Z M 814.608 222.488 Q 804.545 221.942 804.108 211.551 Q 804.655 200.613 814.827 200.067 Q 824.452 200.723 825.217 211.442 Q 824.78 222.051 814.608 222.488 Z M 837.247 211.551 L 830.465 211.551 L 830.465 220.848 L 837.684 220.848 Q 843.59 220.848 843.59 215.926 Q 843.262 211.66 837.247 211.551 Z M 836.919 201.817 L 830.465 201.817 L 830.465 210.129 L 836.919 210.129 Q 842.497 210.129 842.606 205.645 Q 842.497 201.926 836.919 201.817 Z M 838.012 222.16 L 828.934 222.16 L 828.934 200.395 L 837.465 200.395 Q 843.919 200.723 844.356 205.645 Q 844.247 210.02 839.653 210.785 Q 845.122 211.77 845.34 216.254 Q 845.231 222.051 838.012 222.16 Z M 861.856 212.098 L 861.856 210.567 L 848.84 210.567 L 848.84 212.098 Z M 871.699 222.16 L 873.339 222.16 L 873.339 200.067 L 872.136 200.067 Q 870.824 203.676 865.245 206.41 Q 865.245 207.176 865.245 207.942 Q 870.058 205.754 871.699 203.238 Z" transform="matrix(0, -0.595566, 0.690422, 0, 702.099487, 754.097107)" style="fill: rgb(15, 15, 17); text-wrap-mode: nowrap;"/>
  <path d="M 856.29 269.358 C 856.29 274.12 852.675 276.098 848.337 276.098 C 844.107 276.098 840.407 273.993 840.407 269.358 C 840.407 264.531 843.767 262.596 848.21 262.596 C 852.547 262.596 856.2900000000001 264.531 856.2900000000001 269.358 L 856.29 269.358 Z" class="f" style="fill: none;" transform="matrix(0.9999999999999999, 0, 0, 0.9999999999999999, -3.552713678800501e-15, 0)"/>
  <path d="M835.202 132.138h27.344" class="s" style="fill: none; stroke: rgb(15, 14, 18); stroke-width: 0.5; stroke-linecap: round; stroke-linejoin: round; stroke-miterlimit: 30;" transform="matrix(0.9999999999999999, 0, 0, 0.9999999999999999, -3.552713678800501e-15, 0)"/>
  <rect x="21.531" y="24.766" width="800.567" height="282.553" rx="3.799" class="s" style="stroke: rgb(15, 14, 18); stroke-width: 0.5; stroke-linecap: round; stroke-linejoin: round; stroke-miterlimit: 30; fill: rgb(248, 243, 242);" transform="matrix(0.9999999999999999, 0, 0, 0.9999999999999999, -3.552713678800501e-15, 0)"/>
  <circle cx="256.992" cy="189.589" r="15.571" class="f" style="fill: rgb(15, 14, 18);" transform="matrix(0.9999999999999999, 0, 0, 0.9999999999999999, -3.552713678800501e-15, 0)"/>
  <circle cx="304.084" cy="189.589" r="15.571" class="f" style="fill: rgb(15, 14, 18);" transform="matrix(0.9999999999999999, 0, 0, 0.9999999999999999, -3.552713678800501e-15, 0)"/>
  <circle cx="445.361" cy="189.589" r="15.571" class="f" style="fill: rgb(15, 14, 18);" transform="matrix(0.9999999999999999, 0, 0, 0.9999999999999999, -3.552713678800501e-15, 0)"/>
  <circle cx="209.9" cy="189.589" r="15.571" class="f" style="fill: rgb(15, 14, 18);" transform="matrix(0.9999999999999999, 0, 0, 0.9999999999999999, -3.552713678800501e-15, 0)"/>
  <circle cx="398.268" cy="189.589" r="15.571" class="f" style="fill: rgb(15, 14, 18);" transform="matrix(0.9999999999999999, 0, 0, 0.9999999999999999, -3.552713678800501e-15, 0)"/>
  <circle cx="586.637" cy="189.589" r="15.571" class="f" style="fill: rgb(15, 14, 18);" transform="matrix(0.9999999999999999, 0, 0, 0.9999999999999999, -3.552713678800501e-15, 0)"/>
  <circle cx="633.729" cy="189.589" r="15.571" class="f" style="fill: rgb(15, 14, 18);" transform="matrix(0.9999999999999999, 0, 0, 0.9999999999999999, -3.552713678800501e-15, 0)"/>
  <circle cx="775.006" cy="189.589" r="15.571" class="f" style="fill: rgb(15, 14, 18);" transform="matrix(0.9999999999999999, 0, 0, 0.9999999999999999, -3.552713678800501e-15, 0)"/>
  <circle cx="539.545" cy="189.589" r="15.571" class="f" style="fill: rgb(15, 14, 18);" transform="matrix(0.9999999999999999, 0, 0, 0.9999999999999999, -3.552713678800501e-15, 0)"/>
  <circle cx="727.914" cy="189.589" r="15.571" class="f" style="fill: rgb(15, 14, 18);" transform="matrix(0.9999999999999999, 0, 0, 0.9999999999999999, -3.552713678800501e-15, 0)"/>
  <circle cx="139.261" cy="48.312" r="12.153" class="f" style="fill: rgb(15, 14, 18);" transform="matrix(0.9999999999999999, 0, 0, 0.9999999999999999, -3.552713678800501e-15, 0)"/>
  <rect x="115.715" y="71.859" width="47.092" height="47.092" rx="3.798" class="s" style="fill: none; stroke: rgb(15, 14, 18); stroke-width: 0.5; stroke-linecap: round; stroke-linejoin: round; stroke-miterlimit: 30;" transform="matrix(0.9999999999999999, 0, 0, 0.9999999999999999, -3.552713678800501e-15, 0)"/>
  <rect x="398.268" y="24.766" width="94.184" height="94.184" rx="3.798" class="s" style="fill: none; stroke: rgb(15, 14, 18); stroke-width: 0.5; stroke-linecap: round; stroke-linejoin: round; stroke-miterlimit: 30;" transform="matrix(0.9999999999999999, 0, 0, 0.9999999999999999, -3.552713678800501e-15, 0)"/>
  <rect x="492.453" y="24.766" width="94.184" height="94.184" rx="3.798" class="s" style="fill: none; stroke: rgb(15, 14, 18); stroke-width: 0.5; stroke-linecap: round; stroke-linejoin: round; stroke-miterlimit: 30;" transform="matrix(0.9999999999999999, 0, 0, 0.9999999999999999, -3.552713678800501e-15, 0)"/>
  <rect x="586.637" y="24.766" width="94.184" height="94.184" rx="3.798" class="s" style="fill: none; stroke: rgb(15, 14, 18); stroke-width: 0.5; stroke-linecap: round; stroke-linejoin: round; stroke-miterlimit: 30;" transform="matrix(0.9999999999999999, 0, 0, 0.9999999999999999, -3.552713678800501e-15, 0)"/>
  <rect x="680.822" y="24.766" width="94.184" height="94.184" rx="3.798" class="s" style="fill: none; stroke: rgb(15, 14, 18); stroke-width: 0.5; stroke-linecap: round; stroke-linejoin: round; stroke-miterlimit: 30;" transform="matrix(0.9999999999999999, 0, 0, 0.9999999999999999, -3.552713678800501e-15, 0)"/>
  <rect x="115.715" y="24.766" width="94.184" height="47.092" rx="3.798" class="s" style="fill: none; stroke: rgb(15, 14, 18); stroke-width: 0.5; stroke-linecap: round; stroke-linejoin: round; stroke-miterlimit: 30;" transform="matrix(0.9999999999999999, 0, 0, 0.9999999999999999, -3.552713678800501e-15, 0)"/>
  <circle cx="139.261" cy="95.405" r="15.571" class="s" style="fill: none; stroke: rgb(15, 14, 18); stroke-width: 0.5; stroke-linecap: round; stroke-linejoin: round; stroke-miterlimit: 30;" transform="matrix(0.9999999999999999, 0, 0, 0.9999999999999999, -3.552713678800501e-15, 0)"/>
  <rect x="775.006" y="24.766" width="47.092" height="47.092" rx="3.798" class="s" style="fill: none; stroke: rgb(15, 14, 18); stroke-width: 0.5; stroke-linecap: round; stroke-linejoin: round; stroke-miterlimit: 30;" transform="matrix(0.9999999999999999, 0, 0, 0.9999999999999999, -3.552713678800501e-15, 0)"/>
  <circle cx="798.552" cy="48.312" r="15.571" class="s" style="fill: none; stroke: rgb(15, 14, 18); stroke-width: 0.5; stroke-linecap: round; stroke-linejoin: round; stroke-miterlimit: 30;" transform="matrix(0.9999999999999999, 0, 0, 0.9999999999999999, -3.552713678800501e-15, 0)"/>
  <rect x="775.006" y="71.859" width="47.092" height="47.092" rx="3.798" class="s" style="fill: none; stroke: rgb(15, 14, 18); stroke-width: 0.5; stroke-linecap: round; stroke-linejoin: round; stroke-miterlimit: 30;" transform="matrix(0.9999999999999999, 0, 0, 0.9999999999999999, -3.552713678800501e-15, 0)"/>
  <circle cx="798.552" cy="95.405" r="15.571" class="s" style="fill: none; stroke: rgb(15, 14, 18); stroke-width: 0.5; stroke-linecap: round; stroke-linejoin: round; stroke-miterlimit: 30;" transform="matrix(0.9999999999999999, 0, 0, 0.9999999999999999, -3.552713678800501e-15, 0)"/>
  <rect x="775.006" y="118.951" width="47.092" height="47.092" rx="3.798" class="s" style="fill: none; stroke: rgb(15, 14, 18); stroke-width: 0.5; stroke-linecap: round; stroke-linejoin: round; stroke-miterlimit: 30;" transform="matrix(0.9999999999999999, 0, 0, 0.9999999999999999, -3.552713678800501e-15, 0)"/>
  <circle cx="798.552" cy="142.497" r="15.571" class="s" style="fill: none; stroke: rgb(15, 14, 18); stroke-width: 0.5; stroke-linecap: round; stroke-linejoin: round; stroke-miterlimit: 30;" transform="matrix(0.9999999999999999, 0, 0, 0.9999999999999999, -3.552713678800501e-15, 0)"/>
  <rect x="727.914" y="118.951" width="47.092" height="47.092" rx="3.798" class="s" style="fill: none; stroke: rgb(15, 14, 18); stroke-width: 0.5; stroke-linecap: round; stroke-linejoin: round; stroke-miterlimit: 30;" transform="matrix(0.9999999999999999, 0, 0, 0.9999999999999999, -3.552713678800501e-15, 0)"/>
  <circle cx="751.46" cy="142.497" r="15.571" class="s" style="fill: none; stroke: rgb(15, 14, 18); stroke-width: 0.5; stroke-linecap: round; stroke-linejoin: round; stroke-miterlimit: 30;" transform="matrix(0.9999999999999999, 0, 0, 0.9999999999999999, -3.552713678800501e-15, 0)"/>
  <rect x="680.822" y="118.951" width="47.092" height="47.092" rx="3.798" class="s" style="fill: none; stroke: rgb(15, 14, 18); stroke-width: 0.5; stroke-linecap: round; stroke-linejoin: round; stroke-miterlimit: 30;" transform="matrix(0.9999999999999999, 0, 0, 0.9999999999999999, -3.552713678800501e-15, 0)"/>
  <circle cx="704.368" cy="142.497" r="15.571" class="s" style="fill: none; stroke: rgb(15, 14, 18); stroke-width: 0.5; stroke-linecap: round; stroke-linejoin: round; stroke-miterlimit: 30;" transform="matrix(0.9999999999999999, 0, 0, 0.9999999999999999, -3.552713678800501e-15, 0)"/>
  <rect x="633.729" y="118.951" width="47.092" height="47.092" rx="3.798" class="s" style="fill: none; stroke: rgb(15, 14, 18); stroke-width: 0.5; stroke-linecap: round; stroke-linejoin: round; stroke-miterlimit: 30;" transform="matrix(0.9999999999999999, 0, 0, 0.9999999999999999, -3.552713678800501e-15, 0)"/>
  <circle cx="657.275" cy="142.497" r="15.571" class="s" style="fill: none; stroke: rgb(15, 14, 18); stroke-width: 0.5; stroke-linecap: round; stroke-linejoin: round; stroke-miterlimit: 30;" transform="matrix(0.9999999999999999, 0, 0, 0.9999999999999999, -3.552713678800501e-15, 0)"/>
  <rect x="586.637" y="118.951" width="47.092" height="47.092" rx="3.798" class="s" style="fill: none; stroke: rgb(15, 14, 18); stroke-width: 0.5; stroke-linecap: round; stroke-linejoin: round; stroke-miterlimit: 30;" transform="matrix(0.9999999999999999, 0, 0, 0.9999999999999999, -3.552713678800501e-15, 0)"/>
  <circle cx="610.183" cy="142.497" r="15.571" class="s" style="fill: none; stroke: rgb(15, 14, 18); stroke-width: 0.5; stroke-linecap: round; stroke-linejoin: round; stroke-miterlimit: 30;" transform="matrix(0.9999999999999999, 0, 0, 0.9999999999999999, -3.552713678800501e-15, 0)"/>
  <rect x="539.545" y="118.951" width="47.092" height="47.092" rx="3.798" class="s" style="fill: none; stroke: rgb(15, 14, 18); stroke-width: 0.5; stroke-linecap: round; stroke-linejoin: round; stroke-miterlimit: 30;" transform="matrix(0.9999999999999999, 0, 0, 0.9999999999999999, -3.552713678800501e-15, 0)"/>
  <circle cx="563.091" cy="142.497" r="15.571" class="s" style="fill: none; stroke: rgb(15, 14, 18); stroke-width: 0.5; stroke-linecap: round; stroke-linejoin: round; stroke-miterlimit: 30;" transform="matrix(0.9999999999999999, 0, 0, 0.9999999999999999, -3.552713678800501e-15, 0)"/>
  <rect x="492.453" y="118.951" width="47.092" height="47.092" rx="3.798" class="s" style="fill: none; stroke: rgb(15, 14, 18); stroke-width: 0.5; stroke-linecap: round; stroke-linejoin: round; stroke-miterlimit: 30;" transform="matrix(0.9999999999999999, 0, 0, 0.9999999999999999, -3.552713678800501e-15, 0)"/>
  <circle cx="515.999" cy="142.497" r="15.571" class="s" style="fill: none; stroke: rgb(15, 14, 18); stroke-width: 0.5; stroke-linecap: round; stroke-linejoin: round; stroke-miterlimit: 30;" transform="matrix(0.9999999999999999, 0, 0, 0.9999999999999999, -3.552713678800501e-15, 0)"/>
  <rect x="445.361" y="118.951" width="47.092" height="47.092" rx="3.798" class="s" style="fill: none; stroke: rgb(15, 14, 18); stroke-width: 0.5; stroke-linecap: round; stroke-linejoin: round; stroke-miterlimit: 30;" transform="matrix(0.9999999999999999, 0, 0, 0.9999999999999999, -3.552713678800501e-15, 0)"/>
  <circle cx="468.907" cy="142.497" r="15.571" class="s" style="fill: none; stroke: rgb(15, 14, 18); stroke-width: 0.5; stroke-linecap: round; stroke-linejoin: round; stroke-miterlimit: 30;" transform="matrix(0.9999999999999999, 0, 0, 0.9999999999999999, -3.552713678800501e-15, 0)"/>
  <rect x="398.268" y="118.951" width="47.092" height="47.092" rx="3.798" class="s" style="fill: none; stroke: rgb(15, 14, 18); stroke-width: 0.5; stroke-linecap: round; stroke-linejoin: round; stroke-miterlimit: 30;" transform="matrix(0.9999999999999999, 0, 0, 0.9999999999999999, -3.552713678800501e-15, 0)"/>
  <circle cx="421.815" cy="142.497" r="15.571" class="s" style="fill: none; stroke: rgb(15, 14, 18); stroke-width: 0.5; stroke-linecap: round; stroke-linejoin: round; stroke-miterlimit: 30;" transform="matrix(0.9999999999999999, 0, 0, 0.9999999999999999, -3.552713678800501e-15, 0)"/>
  <rect x="351.176" y="118.951" width="47.092" height="47.092" rx="3.798" class="s" style="fill: none; stroke: rgb(15, 14, 18); stroke-width: 0.5; stroke-linecap: round; stroke-linejoin: round; stroke-miterlimit: 30;" transform="matrix(0.9999999999999999, 0, 0, 0.9999999999999999, -3.552713678800501e-15, 0)"/>
  <circle cx="374.722" cy="142.497" r="15.571" class="s" style="fill: none; stroke: rgb(15, 14, 18); stroke-width: 0.5; stroke-linecap: round; stroke-linejoin: round; stroke-miterlimit: 30;" transform="matrix(0.9999999999999999, 0, 0, 0.9999999999999999, -3.552713678800501e-15, 0)"/>
  <rect x="304.084" y="118.951" width="47.092" height="47.092" rx="3.798" class="s" style="fill: none; stroke: rgb(15, 14, 18); stroke-width: 0.5; stroke-linecap: round; stroke-linejoin: round; stroke-miterlimit: 30;" transform="matrix(0.9999999999999999, 0, 0, 0.9999999999999999, -3.552713678800501e-15, 0)"/>
  <circle cx="327.63" cy="142.497" r="15.571" class="s" style="fill: none; stroke: rgb(15, 14, 18); stroke-width: 0.5; stroke-linecap: round; stroke-linejoin: round; stroke-miterlimit: 30;" transform="matrix(0.9999999999999999, 0, 0, 0.9999999999999999, -3.552713678800501e-15, 0)"/>
  <rect x="256.992" y="118.951" width="47.092" height="47.092" rx="3.798" class="s" style="fill: none; stroke: rgb(15, 14, 18); stroke-width: 0.5; stroke-linecap: round; stroke-linejoin: round; stroke-miterlimit: 30;" transform="matrix(0.9999999999999999, 0, 0, 0.9999999999999999, -3.552713678800501e-15, 0)"/>
  <circle cx="280.538" cy="142.497" r="15.571" class="s" style="fill: none; stroke: rgb(15, 14, 18); stroke-width: 0.5; stroke-linecap: round; stroke-linejoin: round; stroke-miterlimit: 30;" transform="matrix(0.9999999999999999, 0, 0, 0.9999999999999999, -3.552713678800501e-15, 0)"/>
  <rect x="209.9" y="118.951" width="47.092" height="47.092" rx="3.798" class="s" style="fill: none; stroke: rgb(15, 14, 18); stroke-width: 0.5; stroke-linecap: round; stroke-linejoin: round; stroke-miterlimit: 30;" transform="matrix(0.9999999999999999, 0, 0, 0.9999999999999999, -3.552713678800501e-15, 0)"/>
  <circle cx="233.446" cy="142.497" r="15.571" class="s" style="fill: none; stroke: rgb(15, 14, 18); stroke-width: 0.5; stroke-linecap: round; stroke-linejoin: round; stroke-miterlimit: 30;" transform="matrix(0.9999999999999999, 0, 0, 0.9999999999999999, -3.552713678800501e-15, 0)"/>
  <rect x="162.807" y="118.951" width="47.092" height="47.092" rx="3.798" class="s" style="fill: none; stroke: rgb(15, 14, 18); stroke-width: 0.5; stroke-linecap: round; stroke-linejoin: round; stroke-miterlimit: 30;" transform="matrix(0.9999999999999999, 0, 0, 0.9999999999999999, -3.552713678800501e-15, 0)"/>
  <circle cx="186.353" cy="142.497" r="15.571" class="s" style="fill: none; stroke: rgb(15, 14, 18); stroke-width: 0.5; stroke-linecap: round; stroke-linejoin: round; stroke-miterlimit: 30;" transform="matrix(0.9999999999999999, 0, 0, 0.9999999999999999, -3.552713678800501e-15, 0)"/>
  <rect x="233.446" y="166.043" width="47.092" height="47.092" rx="3.798" class="s" style="fill: none; stroke: rgb(15, 14, 18); stroke-width: 0.5; stroke-linecap: round; stroke-linejoin: round; stroke-miterlimit: 30;" transform="matrix(0.9999999999999999, 0, 0, 0.9999999999999999, -3.552713678800501e-15, 0)"/>
  <rect x="280.538" y="166.043" width="70.638" height="47.092" rx="3.798" transform="matrix(-0.9999999999999999, 0, 0, -0.9999999999999999, 631.7139892578124, 379.1780090332031)" class="s" style="fill: none; stroke: rgb(15, 14, 18); stroke-width: 0.5; stroke-linecap: round; stroke-linejoin: round; stroke-miterlimit: 30;"/>
  <rect x="421.815" y="166.043" width="70.638" height="47.092" rx="3.798" transform="matrix(-0.9999999999999999, 0, 0, -0.9999999999999999, 914.2670288085936, 379.1780090332031)" class="s" style="fill: none; stroke: rgb(15, 14, 18); stroke-width: 0.5; stroke-linecap: round; stroke-linejoin: round; stroke-miterlimit: 30;"/>
  <rect x="162.807" y="166.043" width="70.638" height="47.092" rx="3.798" transform="matrix(-0.9999999999999999, 0, 0, -0.9999999999999999, 396.25299072265625, 379.1780090332031)" class="s" style="fill: none; stroke: rgb(15, 14, 18); stroke-width: 0.5; stroke-linecap: round; stroke-linejoin: round; stroke-miterlimit: 30;"/>
  <rect x="351.176" y="166.043" width="70.638" height="47.092" rx="3.798" transform="matrix(-0.9999999999999999, 0, 0, -0.9999999999999999, 772.9910278320311, 379.1780090332031)" class="s" style="fill: none; stroke: rgb(15, 14, 18); stroke-width: 0.5; stroke-linecap: round; stroke-linejoin: round; stroke-miterlimit: 30;"/>
  <rect x="563.091" y="166.043" width="47.092" height="47.092" rx="3.798" class="s" style="fill: none; stroke: rgb(15, 14, 18); stroke-width: 0.5; stroke-linecap: round; stroke-linejoin: round; stroke-miterlimit: 30;" transform="matrix(0.9999999999999999, 0, 0, 0.9999999999999999, -3.552713678800501e-15, 0)"/>
  <rect x="610.183" y="166.043" width="70.638" height="47.092" rx="3.798" transform="matrix(-0.9999999999999999, 0, 0, -0.9999999999999999, 1291.0050048828123, 379.1780090332031)" class="s" style="fill: none; stroke: rgb(15, 14, 18); stroke-width: 0.5; stroke-linecap: round; stroke-linejoin: round; stroke-miterlimit: 30;"/>
  <rect x="751.46" y="166.043" width="70.638" height="47.092" rx="3.798" transform="matrix(-0.9999999999999999, 0, 0, -0.9999999999999999, 1573.5579833984373, 379.1780090332031)" class="s" style="fill: none; stroke: rgb(15, 14, 18); stroke-width: 0.5; stroke-linecap: round; stroke-linejoin: round; stroke-miterlimit: 30;"/>
  <rect x="492.453" y="166.043" width="70.638" height="47.092" rx="3.798" transform="matrix(-0.9999999999999999, 0, 0, -0.9999999999999999, 1055.5439453125, 379.1780090332031)" class="s" style="fill: none; stroke: rgb(15, 14, 18); stroke-width: 0.5; stroke-linecap: round; stroke-linejoin: round; stroke-miterlimit: 30;"/>
  <rect x="680.822" y="166.043" width="70.638" height="47.092" rx="3.798" transform="matrix(-0.9999999999999999, 0, 0, -0.9999999999999999, 1432.2810058593748, 379.1780090332031)" class="s" style="fill: none; stroke: rgb(15, 14, 18); stroke-width: 0.5; stroke-linecap: round; stroke-linejoin: round; stroke-miterlimit: 30;"/>
  <rect x="115.715" y="118.951" width="47.092" height="47.092" rx="3.798" class="s" style="fill: none; stroke: rgb(15, 14, 18); stroke-width: 0.5; stroke-linecap: round; stroke-linejoin: round; stroke-miterlimit: 30;" transform="matrix(0.9999999999999999, 0, 0, 0.9999999999999999, -3.552713678800501e-15, 0)"/>
  <circle cx="139.261" cy="142.497" r="15.571" class="s" style="fill: none; stroke: rgb(15, 14, 18); stroke-width: 0.5; stroke-linecap: round; stroke-linejoin: round; stroke-miterlimit: 30;" transform="matrix(0.9999999999999999, 0, 0, 0.9999999999999999, -3.552713678800501e-15, 0)"/>
  <rect x="68.623" y="118.951" width="47.092" height="47.092" rx="3.798" class="s" style="fill: none; stroke: rgb(15, 14, 18); stroke-width: 0.5; stroke-linecap: round; stroke-linejoin: round; stroke-miterlimit: 30;" transform="matrix(0.9999999999999999, 0, 0, 0.9999999999999999, -3.552713678800501e-15, 0)"/>
  <circle cx="92.169" cy="142.497" r="15.571" class="s" style="fill: none; stroke: rgb(15, 14, 18); stroke-width: 0.5; stroke-linecap: round; stroke-linejoin: round; stroke-miterlimit: 30;" transform="matrix(0.9999999999999999, 0, 0, 0.9999999999999999, -3.552713678800501e-15, 0)"/>
  <rect x="21.531" y="118.951" width="47.092" height="47.092" rx="3.798" class="s" style="fill: none; stroke: rgb(15, 14, 18); stroke-width: 0.5; stroke-linecap: round; stroke-linejoin: round; stroke-miterlimit: 30;" transform="matrix(0.9999999999999999, 0, 0, 0.9999999999999999, -3.552713678800501e-15, 0)"/>
  <circle cx="45.077" cy="142.497" r="15.571" class="s" style="fill: none; stroke: rgb(15, 14, 18); stroke-width: 0.5; stroke-linecap: round; stroke-linejoin: round; stroke-miterlimit: 30;" transform="matrix(0.9999999999999999, 0, 0, 0.9999999999999999, -3.552713678800501e-15, 0)"/>
  <rect x="115.715" y="166.043" width="47.092" height="47.092" rx="3.798" class="s" style="fill: none; stroke: rgb(15, 14, 18); stroke-width: 0.5; stroke-linecap: round; stroke-linejoin: round; stroke-miterlimit: 30;" transform="matrix(0.9999999999999999, 0, 0, 0.9999999999999999, -3.552713678800501e-15, 0)"/>
  <circle cx="139.261" cy="189.589" r="15.571" class="s" style="fill: none; stroke: rgb(15, 14, 18); stroke-width: 0.5; stroke-linecap: round; stroke-linejoin: round; stroke-miterlimit: 30;" transform="matrix(0.9999999999999999, 0, 0, 0.9999999999999999, -3.552713678800501e-15, 0)"/>
  <rect x="68.623" y="166.043" width="47.092" height="47.092" rx="3.798" class="s" style="fill: none; stroke: rgb(15, 14, 18); stroke-width: 0.5; stroke-linecap: round; stroke-linejoin: round; stroke-miterlimit: 30;" transform="matrix(0.9999999999999999, 0, 0, 0.9999999999999999, -3.552713678800501e-15, 0)"/>
  <circle cx="92.169" cy="189.589" r="15.571" class="s" style="fill: none; stroke: rgb(15, 14, 18); stroke-width: 0.5; stroke-linecap: round; stroke-linejoin: round; stroke-miterlimit: 30;" transform="matrix(0.9999999999999999, 0, 0, 0.9999999999999999, -3.552713678800501e-15, 0)"/>
  <rect x="21.531" y="166.043" width="47.092" height="47.092" rx="3.798" class="s" style="fill: none; stroke: rgb(15, 14, 18); stroke-width: 0.5; stroke-linecap: round; stroke-linejoin: round; stroke-miterlimit: 30;" transform="matrix(0.9999999999999999, 0, 0, 0.9999999999999999, -3.552713678800501e-15, 0)"/>
  <circle cx="45.077" cy="189.589" r="15.571" class="s" style="fill: none; stroke: rgb(15, 14, 18); stroke-width: 0.5; stroke-linecap: round; stroke-linejoin: round; stroke-miterlimit: 30;" transform="matrix(0.9999999999999999, 0, 0, 0.9999999999999999, -3.552713678800501e-15, 0)"/>
  <rect x="115.715" y="260.227" width="47.092" height="47.092" rx="3.798" class="s" style="fill: none; stroke: rgb(15, 14, 18); stroke-width: 0.5; stroke-linecap: round; stroke-linejoin: round; stroke-miterlimit: 30;" transform="matrix(0.9999999999999999, 0, 0, 0.9999999999999999, -3.552713678800501e-15, 0)"/>
  <circle cx="139.261" cy="283.773" r="15.571" class="s" style="fill: none; stroke: rgb(15, 14, 18); stroke-width: 0.5; stroke-linecap: round; stroke-linejoin: round; stroke-miterlimit: 30;" transform="matrix(0.9999999999999999, 0, 0, 0.9999999999999999, -3.552713678800501e-15, 0)"/>
  <rect x="68.623" y="260.227" width="47.092" height="47.092" rx="3.798" class="s" style="fill: none; stroke: rgb(15, 14, 18); stroke-width: 0.5; stroke-linecap: round; stroke-linejoin: round; stroke-miterlimit: 30;" transform="matrix(0.9999999999999999, 0, 0, 0.9999999999999999, -3.552713678800501e-15, 0)"/>
  <circle cx="92.169" cy="283.773" r="15.571" class="s" style="fill: none; stroke: rgb(15, 14, 18); stroke-width: 0.5; stroke-linecap: round; stroke-linejoin: round; stroke-miterlimit: 30;" transform="matrix(0.9999999999999999, 0, 0, 0.9999999999999999, -3.552713678800501e-15, 0)"/>
  <rect x="21.531" y="260.227" width="47.092" height="47.092" rx="3.798" class="s" style="fill: none; stroke: rgb(15, 14, 18); stroke-width: 0.5; stroke-linecap: round; stroke-linejoin: round; stroke-miterlimit: 30;" transform="matrix(0.9999999999999999, 0, 0, 0.9999999999999999, -3.552713678800501e-15, 0)"/>
  <circle cx="45.077" cy="283.773" r="15.571" class="s" style="fill: none; stroke: rgb(15, 14, 18); stroke-width: 0.5; stroke-linecap: round; stroke-linejoin: round; stroke-miterlimit: 30;" transform="matrix(0.9999999999999999, 0, 0, 0.9999999999999999, -3.552713678800501e-15, 0)"/>
  <rect x="115.715" y="213.135" width="47.092" height="47.092" rx="3.798" class="s" style="fill: none; stroke: rgb(15, 14, 18); stroke-width: 0.5; stroke-linecap: round; stroke-linejoin: round; stroke-miterlimit: 30;" transform="matrix(0.9999999999999999, 0, 0, 0.9999999999999999, -3.552713678800501e-15, 0)"/>
  <circle cx="139.261" cy="236.681" r="15.571" class="s" style="fill: none; stroke: rgb(15, 14, 18); stroke-width: 0.5; stroke-linecap: round; stroke-linejoin: round; stroke-miterlimit: 30;" transform="matrix(0.9999999999999999, 0, 0, 0.9999999999999999, -3.552713678800501e-15, 0)"/>
  <rect x="68.623" y="213.135" width="47.092" height="47.092" rx="3.798" class="s" style="fill: none; stroke: rgb(15, 14, 18); stroke-width: 0.5; stroke-linecap: round; stroke-linejoin: round; stroke-miterlimit: 30;" transform="matrix(0.9999999999999999, 0, 0, 0.9999999999999999, -3.552713678800501e-15, 0)"/>
  <circle cx="92.169" cy="236.681" r="15.571" class="s" style="fill: none; stroke: rgb(15, 14, 18); stroke-width: 0.5; stroke-linecap: round; stroke-linejoin: round; stroke-miterlimit: 30;" transform="matrix(0.9999999999999999, 0, 0, 0.9999999999999999, -3.552713678800501e-15, 0)"/>
  <rect x="21.531" y="213.135" width="47.092" height="47.092" rx="3.798" class="s" style="fill: none; stroke: rgb(15, 14, 18); stroke-width: 0.5; stroke-linecap: round; stroke-linejoin: round; stroke-miterlimit: 30;" transform="matrix(0.9999999999999999, 0, 0, 0.9999999999999999, -3.552713678800501e-15, 0)"/>
  <circle cx="45.077" cy="236.681" r="15.571" class="s" style="fill: none; stroke: rgb(15, 14, 18); stroke-width: 0.5; stroke-linecap: round; stroke-linejoin: round; stroke-miterlimit: 30;" transform="matrix(0.9999999999999999, 0, 0, 0.9999999999999999, -3.552713678800501e-15, 0)"/>
  <rect x="162.807" y="71.859" width="47.092" height="47.092" rx="3.798" class="s" style="fill: none; stroke: rgb(15, 14, 18); stroke-width: 0.5; stroke-linecap: round; stroke-linejoin: round; stroke-miterlimit: 30;" transform="matrix(0.9999999999999999, 0, 0, 0.9999999999999999, -3.552713678800501e-15, 0)"/>
  <circle cx="186.353" cy="95.405" r="15.571" class="s" style="fill: none; stroke: rgb(15, 14, 18); stroke-width: 0.5; stroke-linecap: round; stroke-linejoin: round; stroke-miterlimit: 30;" transform="matrix(0.9999999999999999, 0, 0, 0.9999999999999999, -3.552713678800501e-15, 0)"/>
  <rect x="162.807" y="213.135" width="47.092" height="94.184" rx="3.798" class="s" style="fill: none; stroke: rgb(15, 14, 18); stroke-width: 0.5; stroke-linecap: round; stroke-linejoin: round; stroke-miterlimit: 30;" transform="matrix(0.9999999999999999, 0, 0, 0.9999999999999999, -3.552713678800501e-15, 0)"/>
  <path d="M186.353 221.11a15.57 15.57 0 0 0-15.57 15.57v47.093a15.57 15.57 0 1 0 31.14 0V236.68a15.57 15.57 0 0 0-15.57-15.57z" class="s" style="fill: none; stroke: rgb(15, 14, 18); stroke-width: 0.5; stroke-linecap: round; stroke-linejoin: round; stroke-miterlimit: 30;" transform="matrix(0.9999999999999999, 0, 0, 0.9999999999999999, -3.552713678800501e-15, 0)"/>
  <rect x="209.9" y="213.135" width="47.092" height="94.184" rx="3.798" class="s" style="fill: none; stroke: rgb(15, 14, 18); stroke-width: 0.5; stroke-linecap: round; stroke-linejoin: round; stroke-miterlimit: 30;" transform="matrix(0.9999999999999999, 0, 0, 0.9999999999999999, -3.552713678800501e-15, 0)"/>
  <path d="M233.446 221.11a15.57 15.57 0 0 0-15.57 15.57v47.093a15.57 15.57 0 0 0 31.14 0V236.68a15.57 15.57 0 0 0-15.57-15.57z" class="s" style="fill: none; stroke: rgb(15, 14, 18); stroke-width: 0.5; stroke-linecap: round; stroke-linejoin: round; stroke-miterlimit: 30;" transform="matrix(0.9999999999999999, 0, 0, 0.9999999999999999, -3.552713678800501e-15, 0)"/>
  <rect x="256.992" y="213.135" width="47.092" height="94.184" rx="3.798" class="s" style="fill: none; stroke: rgb(15, 14, 18); stroke-width: 0.5; stroke-linecap: round; stroke-linejoin: round; stroke-miterlimit: 30;" transform="matrix(0.9999999999999999, 0, 0, 0.9999999999999999, -3.552713678800501e-15, 0)"/>
  <path d="M280.538 221.11a15.57 15.57 0 0 0-15.57 15.57v47.093a15.57 15.57 0 0 0 31.14 0V236.68a15.57 15.57 0 0 0-15.57-15.57z" class="s" style="fill: none; stroke: rgb(15, 14, 18); stroke-width: 0.5; stroke-linecap: round; stroke-linejoin: round; stroke-miterlimit: 30;" transform="matrix(0.9999999999999999, 0, 0, 0.9999999999999999, -3.552713678800501e-15, 0)"/>
  <rect x="304.084" y="213.135" width="47.092" height="94.184" rx="3.798" class="s" style="fill: none; stroke: rgb(15, 14, 18); stroke-width: 0.5; stroke-linecap: round; stroke-linejoin: round; stroke-miterlimit: 30;" transform="matrix(0.9999999999999999, 0, 0, 0.9999999999999999, -3.552713678800501e-15, 0)"/>
  <path d="M327.63 221.11a15.57 15.57 0 0 0-15.57 15.57v47.093a15.57 15.57 0 1 0 31.14 0V236.68a15.57 15.57 0 0 0-15.57-15.57z" class="s" style="fill: none; stroke: rgb(15, 14, 18); stroke-width: 0.5; stroke-linecap: round; stroke-linejoin: round; stroke-miterlimit: 30;" transform="matrix(0.9999999999999999, 0, 0, 0.9999999999999999, -3.552713678800501e-15, 0)"/>
  <rect x="351.176" y="213.135" width="47.092" height="94.184" rx="3.798" class="s" style="fill: none; stroke: rgb(15, 14, 18); stroke-width: 0.5; stroke-linecap: round; stroke-linejoin: round; stroke-miterlimit: 30;" transform="matrix(0.9999999999999999, 0, 0, 0.9999999999999999, -3.552713678800501e-15, 0)"/>
  <path d="M374.722 221.11a15.57 15.57 0 0 0-15.57 15.57v47.093a15.57 15.57 0 1 0 31.14 0V236.68a15.57 15.57 0 0 0-15.57-15.57z" class="s" style="fill: none; stroke: rgb(15, 14, 18); stroke-width: 0.5; stroke-linecap: round; stroke-linejoin: round; stroke-miterlimit: 30;" transform="matrix(0.9999999999999999, 0, 0, 0.9999999999999999, -3.552713678800501e-15, 0)"/>
  <rect x="398.268" y="213.135" width="47.092" height="94.184" rx="3.798" class="s" style="fill: none; stroke: rgb(15, 14, 18); stroke-width: 0.5; stroke-linecap: round; stroke-linejoin: round; stroke-miterlimit: 30;" transform="matrix(0.9999999999999999, 0, 0, 0.9999999999999999, -3.552713678800501e-15, 0)"/>
  <path d="M421.814 221.11a15.57 15.57 0 0 0-15.57 15.57v47.093a15.57 15.57 0 1 0 31.14 0V236.68a15.57 15.57 0 0 0-15.57-15.57z" class="s" style="fill: none; stroke: rgb(15, 14, 18); stroke-width: 0.5; stroke-linecap: round; stroke-linejoin: round; stroke-miterlimit: 30;" transform="matrix(0.9999999999999999, 0, 0, 0.9999999999999999, -3.552713678800501e-15, 0)"/>
  <rect x="445.361" y="213.135" width="47.092" height="94.184" rx="3.798" class="s" style="fill: none; stroke: rgb(15, 14, 18); stroke-width: 0.5; stroke-linecap: round; stroke-linejoin: round; stroke-miterlimit: 30;" transform="matrix(0.9999999999999999, 0, 0, 0.9999999999999999, -3.552713678800501e-15, 0)"/>
  <path d="M468.907 221.11a15.57 15.57 0 0 0-15.57 15.57v47.093a15.57 15.57 0 1 0 31.14 0V236.68a15.57 15.57 0 0 0-15.57-15.57z" class="s" style="fill: none; stroke: rgb(15, 14, 18); stroke-width: 0.5; stroke-linecap: round; stroke-linejoin: round; stroke-miterlimit: 30;" transform="matrix(0.9999999999999999, 0, 0, 0.9999999999999999, -3.552713678800501e-15, 0)"/>
  <rect x="492.453" y="213.135" width="47.092" height="94.184" rx="3.798" class="s" style="fill: none; stroke: rgb(15, 14, 18); stroke-width: 0.5; stroke-linecap: round; stroke-linejoin: round; stroke-miterlimit: 30;" transform="matrix(0.9999999999999999, 0, 0, 0.9999999999999999, -3.552713678800501e-15, 0)"/>
  <path d="M516 221.11a15.57 15.57 0 0 0-15.572 15.57v47.093a15.57 15.57 0 1 0 31.142 0V236.68A15.57 15.57 0 0 0 516 221.11z" class="s" style="fill: none; stroke: rgb(15, 14, 18); stroke-width: 0.5; stroke-linecap: round; stroke-linejoin: round; stroke-miterlimit: 30;" transform="matrix(0.9999999999999999, 0, 0, 0.9999999999999999, -3.552713678800501e-15, 0)"/>
  <rect x="539.545" y="213.135" width="47.092" height="94.184" rx="3.798" class="s" style="fill: none; stroke: rgb(15, 14, 18); stroke-width: 0.5; stroke-linecap: round; stroke-linejoin: round; stroke-miterlimit: 30;" transform="matrix(0.9999999999999999, 0, 0, 0.9999999999999999, -3.552713678800501e-15, 0)"/>
  <path d="M563.09 221.11a15.57 15.57 0 0 0-15.57 15.57v47.093a15.57 15.57 0 1 0 31.142 0V236.68a15.57 15.57 0 0 0-15.57-15.57z" class="s" style="fill: none; stroke: rgb(15, 14, 18); stroke-width: 0.5; stroke-linecap: round; stroke-linejoin: round; stroke-miterlimit: 30;" transform="matrix(0.9999999999999999, 0, 0, 0.9999999999999999, -3.552713678800501e-15, 0)"/>
  <rect x="586.637" y="213.135" width="47.092" height="94.184" rx="3.798" class="s" style="fill: none; stroke: rgb(15, 14, 18); stroke-width: 0.5; stroke-linecap: round; stroke-linejoin: round; stroke-miterlimit: 30;" transform="matrix(0.9999999999999999, 0, 0, 0.9999999999999999, -3.552713678800501e-15, 0)"/>
  <path d="M610.183 221.11a15.57 15.57 0 0 0-15.57 15.57v47.093a15.57 15.57 0 1 0 31.14 0V236.68a15.57 15.57 0 0 0-15.57-15.57z" class="s" style="fill: none; stroke: rgb(15, 14, 18); stroke-width: 0.5; stroke-linecap: round; stroke-linejoin: round; stroke-miterlimit: 30;" transform="matrix(0.9999999999999999, 0, 0, 0.9999999999999999, -3.552713678800501e-15, 0)"/>
  <rect x="633.729" y="213.135" width="47.092" height="94.184" rx="3.798" class="s" style="fill: none; stroke: rgb(15, 14, 18); stroke-width: 0.5; stroke-linecap: round; stroke-linejoin: round; stroke-miterlimit: 30;" transform="matrix(0.9999999999999999, 0, 0, 0.9999999999999999, -3.552713678800501e-15, 0)"/>
  <path d="M657.275 221.11a15.57 15.57 0 0 0-15.57 15.57v47.093a15.57 15.57 0 1 0 31.14 0V236.68a15.57 15.57 0 0 0-15.57-15.57z" class="s" style="fill: none; stroke: rgb(15, 14, 18); stroke-width: 0.5; stroke-linecap: round; stroke-linejoin: round; stroke-miterlimit: 30;" transform="matrix(0.9999999999999999, 0, 0, 0.9999999999999999, -3.552713678800501e-15, 0)"/>
  <rect x="680.822" y="213.135" width="47.092" height="94.184" rx="3.798" class="s" style="fill: none; stroke: rgb(15, 14, 18); stroke-width: 0.5; stroke-linecap: round; stroke-linejoin: round; stroke-miterlimit: 30;" transform="matrix(0.9999999999999999, 0, 0, 0.9999999999999999, -3.552713678800501e-15, 0)"/>
  <path d="M704.368 221.11a15.57 15.57 0 0 0-15.57 15.57v47.093a15.57 15.57 0 0 0 31.14 0V236.68a15.57 15.57 0 0 0-15.57-15.57z" class="s" style="fill: none; stroke: rgb(15, 14, 18); stroke-width: 0.5; stroke-linecap: round; stroke-linejoin: round; stroke-miterlimit: 30;" transform="matrix(0.9999999999999999, 0, 0, 0.9999999999999999, -3.552713678800501e-15, 0)"/>
  <rect x="727.914" y="213.135" width="47.092" height="94.184" rx="3.798" class="s" style="fill: none; stroke: rgb(15, 14, 18); stroke-width: 0.5; stroke-linecap: round; stroke-linejoin: round; stroke-miterlimit: 30;" transform="matrix(0.9999999999999999, 0, 0, 0.9999999999999999, -3.552713678800501e-15, 0)"/>
  <path d="M751.46 221.11a15.57 15.57 0 0 0-15.57 15.57v47.093a15.57 15.57 0 0 0 31.14 0V236.68a15.57 15.57 0 0 0-15.57-15.57z" class="s" style="fill: none; stroke: rgb(15, 14, 18); stroke-width: 0.5; stroke-linecap: round; stroke-linejoin: round; stroke-miterlimit: 30;" transform="matrix(0.9999999999999999, 0, 0, 0.9999999999999999, -3.552713678800501e-15, 0)"/>
  <rect x="775.006" y="213.135" width="47.092" height="94.184" rx="3.798" class="s" style="fill: none; stroke: rgb(15, 14, 18); stroke-width: 0.5; stroke-linecap: round; stroke-linejoin: round; stroke-miterlimit: 30;" transform="matrix(0.9999999999999999, 0, 0, 0.9999999999999999, -3.552713678800501e-15, 0)"/>
  <path d="M798.552 221.11a15.57 15.57 0 0 0-15.57 15.57v47.093a15.57 15.57 0 0 0 31.14 0V236.68a15.57 15.57 0 0 0-15.57-15.57z" class="s" style="fill: none; stroke: rgb(15, 14, 18); stroke-width: 0.5; stroke-linecap: round; stroke-linejoin: round; stroke-miterlimit: 30;" transform="matrix(0.9999999999999999, 0, 0, 0.9999999999999999, -3.552713678800501e-15, 0)"/>
  <rect x="21.531" y="24.766" width="94.184" height="94.184" rx="3.798" class="s" style="fill: none; stroke: rgb(15, 14, 18); stroke-width: 0.5; stroke-linecap: round; stroke-linejoin: round; stroke-miterlimit: 30;" transform="matrix(0.9999999999999999, 0, 0, 0.9999999999999999, -3.552713678800501e-15, 0)"/>
  <g class="f" style="fill: rgb(15, 14, 18);" transform="matrix(0.9999999999999999, 0, 0, 0.9999999999999999, -3.552713678800501e-15, 0)">
    <circle cx="50.402" cy="35.425" r="1.823" style="fill: rgb(15, 14, 18);"/>
    <circle cx="56.476" cy="35.425" r="1.823" style="fill: rgb(15, 14, 18);"/>
    <circle cx="62.549" cy="35.425" r="1.823" style="fill: rgb(15, 14, 18);"/>
    <circle cx="68.623" cy="35.425" r="1.823" style="fill: rgb(15, 14, 18);"/>
    <circle cx="74.697" cy="35.425" r="1.823" style="fill: rgb(15, 14, 18);"/>
    <circle cx="80.77" cy="35.425" r="1.823" style="fill: rgb(15, 14, 18);"/>
    <circle cx="86.844" cy="35.425" r="1.823" style="fill: rgb(15, 14, 18);"/>
  </g>
  <g class="f" style="fill: rgb(15, 14, 18);" transform="matrix(0.9999999999999999, 0, 0, 0.9999999999999999, -3.552713678800501e-15, 0)">
    <circle cx="38.255" cy="41.498" r="1.823" style="fill: rgb(15, 14, 18);"/>
    <circle cx="44.329" cy="41.498" r="1.823" style="fill: rgb(15, 14, 18);"/>
    <circle cx="50.402" cy="41.498" r="1.823" style="fill: rgb(15, 14, 18);"/>
    <circle cx="56.476" cy="41.498" r="1.823" style="fill: rgb(15, 14, 18);"/>
    <circle cx="62.549" cy="41.498" r="1.823" style="fill: rgb(15, 14, 18);"/>
    <circle cx="68.623" cy="41.498" r="1.823" style="fill: rgb(15, 14, 18);"/>
    <circle cx="74.697" cy="41.498" r="1.823" style="fill: rgb(15, 14, 18);"/>
    <circle cx="80.77" cy="41.498" r="1.823" style="fill: rgb(15, 14, 18);"/>
    <circle cx="86.844" cy="41.498" r="1.823" style="fill: rgb(15, 14, 18);"/>
    <circle cx="92.917" cy="41.498" r="1.823" style="fill: rgb(15, 14, 18);"/>
    <circle cx="98.991" cy="41.498" r="1.823" style="fill: rgb(15, 14, 18);"/>
  </g>
  <g class="f" style="fill: rgb(15, 14, 18);" transform="matrix(0.9999999999999999, 0, 0, 0.9999999999999999, -3.552713678800501e-15, 0)">
    <circle cx="38.255" cy="47.57" r="1.823" style="fill: rgb(15, 14, 18);"/>
    <circle cx="44.329" cy="47.57" r="1.823" style="fill: rgb(15, 14, 18);"/>
    <circle cx="50.402" cy="47.57" r="1.823" style="fill: rgb(15, 14, 18);"/>
    <circle cx="56.476" cy="47.57" r="1.823" style="fill: rgb(15, 14, 18);"/>
    <circle cx="62.549" cy="47.57" r="1.823" style="fill: rgb(15, 14, 18);"/>
    <circle cx="68.623" cy="47.57" r="1.823" style="fill: rgb(15, 14, 18);"/>
    <circle cx="74.697" cy="47.57" r="1.823" style="fill: rgb(15, 14, 18);"/>
    <circle cx="80.77" cy="47.57" r="1.823" style="fill: rgb(15, 14, 18);"/>
    <circle cx="86.844" cy="47.57" r="1.823" style="fill: rgb(15, 14, 18);"/>
    <circle cx="92.917" cy="47.57" r="1.823" style="fill: rgb(15, 14, 18);"/>
    <circle cx="98.991" cy="47.57" r="1.823" style="fill: rgb(15, 14, 18);"/>
  </g>
  <g class="f" style="fill: rgb(15, 14, 18);" transform="matrix(0.9999999999999999, 0, 0, 0.9999999999999999, -3.552713678800501e-15, 0)">
    <circle cx="32.181" cy="53.642" r="1.823" style="fill: rgb(15, 14, 18);"/>
    <circle cx="38.255" cy="53.642" r="1.823" style="fill: rgb(15, 14, 18);"/>
    <circle cx="44.329" cy="53.642" r="1.823" style="fill: rgb(15, 14, 18);"/>
    <circle cx="50.402" cy="53.642" r="1.823" style="fill: rgb(15, 14, 18);"/>
    <circle cx="56.476" cy="53.642" r="1.823" style="fill: rgb(15, 14, 18);"/>
    <circle cx="62.549" cy="53.642" r="1.823" style="fill: rgb(15, 14, 18);"/>
    <circle cx="68.623" cy="53.642" r="1.823" style="fill: rgb(15, 14, 18);"/>
    <circle cx="74.697" cy="53.642" r="1.823" style="fill: rgb(15, 14, 18);"/>
    <circle cx="80.77" cy="53.642" r="1.823" style="fill: rgb(15, 14, 18);"/>
    <circle cx="86.844" cy="53.642" r="1.823" style="fill: rgb(15, 14, 18);"/>
    <circle cx="92.917" cy="53.642" r="1.823" style="fill: rgb(15, 14, 18);"/>
    <circle cx="98.991" cy="53.642" r="1.823" style="fill: rgb(15, 14, 18);"/>
    <circle cx="105.065" cy="53.642" r="1.823" style="fill: rgb(15, 14, 18);"/>
  </g>
  <g class="f" style="fill: rgb(15, 14, 18);" transform="matrix(0.9999999999999999, 0, 0, 0.9999999999999999, -3.552713678800501e-15, 0)">
    <circle cx="32.181" cy="59.714" r="1.823" style="fill: rgb(15, 14, 18);"/>
    <circle cx="38.255" cy="59.714" r="1.823" style="fill: rgb(15, 14, 18);"/>
    <circle cx="44.329" cy="59.714" r="1.823" style="fill: rgb(15, 14, 18);"/>
    <circle cx="50.402" cy="59.714" r="1.823" style="fill: rgb(15, 14, 18);"/>
    <circle cx="56.476" cy="59.714" r="1.823" style="fill: rgb(15, 14, 18);"/>
    <circle cx="62.549" cy="59.714" r="1.823" style="fill: rgb(15, 14, 18);"/>
    <circle cx="68.623" cy="59.714" r="1.823" style="fill: rgb(15, 14, 18);"/>
    <circle cx="74.697" cy="59.714" r="1.823" style="fill: rgb(15, 14, 18);"/>
    <circle cx="80.77" cy="59.714" r="1.823" style="fill: rgb(15, 14, 18);"/>
    <circle cx="86.844" cy="59.714" r="1.823" style="fill: rgb(15, 14, 18);"/>
    <circle cx="92.917" cy="59.714" r="1.823" style="fill: rgb(15, 14, 18);"/>
    <circle cx="98.991" cy="59.714" r="1.823" style="fill: rgb(15, 14, 18);"/>
    <circle cx="105.065" cy="59.714" r="1.823" style="fill: rgb(15, 14, 18);"/>
  </g>
  <g class="f" style="fill: rgb(15, 14, 18);" transform="matrix(0.9999999999999999, 0, 0, 0.9999999999999999, -3.552713678800501e-15, 0)">
    <circle cx="32.181" cy="65.786" r="1.823" style="fill: rgb(15, 14, 18);"/>
    <circle cx="38.255" cy="65.786" r="1.823" style="fill: rgb(15, 14, 18);"/>
    <circle cx="44.329" cy="65.786" r="1.823" style="fill: rgb(15, 14, 18);"/>
    <circle cx="50.402" cy="65.786" r="1.823" style="fill: rgb(15, 14, 18);"/>
    <circle cx="56.476" cy="65.786" r="1.823" style="fill: rgb(15, 14, 18);"/>
    <circle cx="62.549" cy="65.786" r="1.823" style="fill: rgb(15, 14, 18);"/>
    <circle cx="68.623" cy="65.786" r="1.823" style="fill: rgb(15, 14, 18);"/>
    <circle cx="74.697" cy="65.786" r="1.823" style="fill: rgb(15, 14, 18);"/>
    <circle cx="80.77" cy="65.786" r="1.823" style="fill: rgb(15, 14, 18);"/>
    <circle cx="86.844" cy="65.786" r="1.823" style="fill: rgb(15, 14, 18);"/>
    <circle cx="92.917" cy="65.786" r="1.823" style="fill: rgb(15, 14, 18);"/>
    <circle cx="98.991" cy="65.786" r="1.823" style="fill: rgb(15, 14, 18);"/>
    <circle cx="105.065" cy="65.786" r="1.823" style="fill: rgb(15, 14, 18);"/>
  </g>
  <g class="f" style="fill: rgb(15, 14, 18);" transform="matrix(0.9999999999999999, 0, 0, 0.9999999999999999, -3.552713678800501e-15, 0)">
    <circle cx="32.181" cy="71.859" r="1.823" style="fill: rgb(15, 14, 18);"/>
    <circle cx="38.255" cy="71.859" r="1.823" style="fill: rgb(15, 14, 18);"/>
    <circle cx="44.329" cy="71.859" r="1.823" style="fill: rgb(15, 14, 18);"/>
    <circle cx="50.402" cy="71.859" r="1.823" style="fill: rgb(15, 14, 18);"/>
    <circle cx="56.476" cy="71.859" r="1.823" style="fill: rgb(15, 14, 18);"/>
    <circle cx="62.549" cy="71.859" r="1.823" style="fill: rgb(15, 14, 18);"/>
    <circle cx="68.623" cy="71.859" r="1.823" style="fill: rgb(15, 14, 18);"/>
    <circle cx="74.697" cy="71.859" r="1.823" style="fill: rgb(15, 14, 18);"/>
    <circle cx="80.77" cy="71.859" r="1.823" style="fill: rgb(15, 14, 18);"/>
    <circle cx="86.844" cy="71.859" r="1.823" style="fill: rgb(15, 14, 18);"/>
    <circle cx="92.917" cy="71.859" r="1.823" style="fill: rgb(15, 14, 18);"/>
    <circle cx="98.991" cy="71.859" r="1.823" style="fill: rgb(15, 14, 18);"/>
    <circle cx="105.065" cy="71.859" r="1.823" style="fill: rgb(15, 14, 18);"/>
  </g>
  <g class="f" style="fill: rgb(15, 14, 18);" transform="matrix(0.9999999999999999, 0, 0, 0.9999999999999999, -3.552713678800501e-15, 0)">
    <circle cx="32.181" cy="77.931" r="1.823" style="fill: rgb(15, 14, 18);"/>
    <circle cx="38.255" cy="77.931" r="1.823" style="fill: rgb(15, 14, 18);"/>
    <circle cx="44.329" cy="77.931" r="1.823" style="fill: rgb(15, 14, 18);"/>
    <circle cx="50.402" cy="77.931" r="1.823" style="fill: rgb(15, 14, 18);"/>
    <circle cx="56.476" cy="77.931" r="1.823" style="fill: rgb(15, 14, 18);"/>
    <circle cx="62.549" cy="77.931" r="1.823" style="fill: rgb(15, 14, 18);"/>
    <circle cx="68.623" cy="77.931" r="1.823" style="fill: rgb(15, 14, 18);"/>
    <circle cx="74.697" cy="77.931" r="1.823" style="fill: rgb(15, 14, 18);"/>
    <circle cx="80.77" cy="77.931" r="1.823" style="fill: rgb(15, 14, 18);"/>
    <circle cx="86.844" cy="77.931" r="1.823" style="fill: rgb(15, 14, 18);"/>
    <circle cx="92.917" cy="77.931" r="1.823" style="fill: rgb(15, 14, 18);"/>
    <circle cx="98.991" cy="77.931" r="1.823" style="fill: rgb(15, 14, 18);"/>
    <circle cx="105.065" cy="77.931" r="1.823" style="fill: rgb(15, 14, 18);"/>
  </g>
  <g class="f" style="fill: rgb(15, 14, 18);" transform="matrix(0.9999999999999999, 0, 0, 0.9999999999999999, -3.552713678800501e-15, 0)">
    <circle cx="32.181" cy="84.003" r="1.823" style="fill: rgb(15, 14, 18);"/>
    <circle cx="38.255" cy="84.003" r="1.823" style="fill: rgb(15, 14, 18);"/>
    <circle cx="44.329" cy="84.003" r="1.823" style="fill: rgb(15, 14, 18);"/>
    <circle cx="50.402" cy="84.003" r="1.823" style="fill: rgb(15, 14, 18);"/>
    <circle cx="56.476" cy="84.003" r="1.823" style="fill: rgb(15, 14, 18);"/>
    <circle cx="62.549" cy="84.003" r="1.823" style="fill: rgb(15, 14, 18);"/>
    <circle cx="68.623" cy="84.003" r="1.823" style="fill: rgb(15, 14, 18);"/>
    <circle cx="74.697" cy="84.003" r="1.823" style="fill: rgb(15, 14, 18);"/>
    <circle cx="80.77" cy="84.003" r="1.823" style="fill: rgb(15, 14, 18);"/>
    <circle cx="86.844" cy="84.003" r="1.823" style="fill: rgb(15, 14, 18);"/>
    <circle cx="92.917" cy="84.003" r="1.823" style="fill: rgb(15, 14, 18);"/>
    <circle cx="98.991" cy="84.003" r="1.823" style="fill: rgb(15, 14, 18);"/>
    <circle cx="105.065" cy="84.003" r="1.823" style="fill: rgb(15, 14, 18);"/>
  </g>
  <g class="f" style="fill: rgb(15, 14, 18);" transform="matrix(0.9999999999999999, 0, 0, 0.9999999999999999, -3.552713678800501e-15, 0)">
    <circle cx="32.181" cy="90.075" r="1.823" style="fill: rgb(15, 14, 18);"/>
    <circle cx="38.255" cy="90.075" r="1.823" style="fill: rgb(15, 14, 18);"/>
    <circle cx="44.329" cy="90.075" r="1.823" style="fill: rgb(15, 14, 18);"/>
    <circle cx="50.402" cy="90.075" r="1.823" style="fill: rgb(15, 14, 18);"/>
    <circle cx="56.476" cy="90.075" r="1.823" style="fill: rgb(15, 14, 18);"/>
    <circle cx="62.549" cy="90.075" r="1.823" style="fill: rgb(15, 14, 18);"/>
    <circle cx="68.623" cy="90.075" r="1.823" style="fill: rgb(15, 14, 18);"/>
    <circle cx="74.697" cy="90.075" r="1.823" style="fill: rgb(15, 14, 18);"/>
    <circle cx="80.77" cy="90.075" r="1.823" style="fill: rgb(15, 14, 18);"/>
    <circle cx="86.844" cy="90.075" r="1.823" style="fill: rgb(15, 14, 18);"/>
    <circle cx="92.917" cy="90.075" r="1.823" style="fill: rgb(15, 14, 18);"/>
    <circle cx="98.991" cy="90.075" r="1.823" style="fill: rgb(15, 14, 18);"/>
    <circle cx="105.065" cy="90.075" r="1.823" style="fill: rgb(15, 14, 18);"/>
  </g>
  <g class="f" style="fill: rgb(15, 14, 18);" transform="matrix(0.9999999999999999, 0, 0, 0.9999999999999999, -3.552713678800501e-15, 0)">
    <circle cx="38.255" cy="96.147" r="1.823" style="fill: rgb(15, 14, 18);"/>
    <circle cx="44.329" cy="96.147" r="1.823" style="fill: rgb(15, 14, 18);"/>
    <circle cx="50.402" cy="96.147" r="1.823" style="fill: rgb(15, 14, 18);"/>
    <circle cx="56.476" cy="96.147" r="1.823" style="fill: rgb(15, 14, 18);"/>
    <circle cx="62.549" cy="96.147" r="1.823" style="fill: rgb(15, 14, 18);"/>
    <circle cx="68.623" cy="96.147" r="1.823" style="fill: rgb(15, 14, 18);"/>
    <circle cx="74.697" cy="96.147" r="1.823" style="fill: rgb(15, 14, 18);"/>
    <circle cx="80.77" cy="96.147" r="1.823" style="fill: rgb(15, 14, 18);"/>
    <circle cx="86.844" cy="96.147" r="1.823" style="fill: rgb(15, 14, 18);"/>
    <circle cx="92.917" cy="96.147" r="1.823" style="fill: rgb(15, 14, 18);"/>
    <circle cx="98.991" cy="96.147" r="1.823" style="fill: rgb(15, 14, 18);"/>
  </g>
  <g class="f" style="fill: rgb(15, 14, 18);" transform="matrix(0.9999999999999999, 0, 0, 0.9999999999999999, -3.552713678800501e-15, 0)">
    <circle cx="38.255" cy="102.219" r="1.823" style="fill: rgb(15, 14, 18);"/>
    <circle cx="44.329" cy="102.219" r="1.823" style="fill: rgb(15, 14, 18);"/>
    <circle cx="50.402" cy="102.219" r="1.823" style="fill: rgb(15, 14, 18);"/>
    <circle cx="56.476" cy="102.219" r="1.823" style="fill: rgb(15, 14, 18);"/>
    <circle cx="62.549" cy="102.219" r="1.823" style="fill: rgb(15, 14, 18);"/>
    <circle cx="68.623" cy="102.219" r="1.823" style="fill: rgb(15, 14, 18);"/>
    <circle cx="74.697" cy="102.219" r="1.823" style="fill: rgb(15, 14, 18);"/>
    <circle cx="80.77" cy="102.219" r="1.823" style="fill: rgb(15, 14, 18);"/>
    <circle cx="86.844" cy="102.219" r="1.823" style="fill: rgb(15, 14, 18);"/>
    <circle cx="92.917" cy="102.219" r="1.823" style="fill: rgb(15, 14, 18);"/>
    <circle cx="98.991" cy="102.219" r="1.823" style="fill: rgb(15, 14, 18);"/>
  </g>
  <g class="f" style="fill: rgb(15, 14, 18);" transform="matrix(0.9999999999999999, 0, 0, 0.9999999999999999, -3.552713678800501e-15, 0)">
    <circle cx="50.402" cy="108.292" r="1.823" style="fill: rgb(15, 14, 18);"/>
    <circle cx="56.476" cy="108.292" r="1.823" style="fill: rgb(15, 14, 18);"/>
    <circle cx="62.549" cy="108.292" r="1.823" style="fill: rgb(15, 14, 18);"/>
    <circle cx="68.623" cy="108.292" r="1.823" style="fill: rgb(15, 14, 18);"/>
    <circle cx="74.697" cy="108.292" r="1.823" style="fill: rgb(15, 14, 18);"/>
    <circle cx="80.77" cy="108.292" r="1.823" style="fill: rgb(15, 14, 18);"/>
    <circle cx="86.844" cy="108.292" r="1.823" style="fill: rgb(15, 14, 18);"/>
  </g>
  <rect x="171.162" y="33.121" width="30.382" height="30.382" rx="7.596" class="s" style="fill: none; stroke: rgb(15, 14, 18); stroke-width: 0.5; stroke-linecap: round; stroke-linejoin: round; stroke-miterlimit: 30;" transform="matrix(0.9999999999999999, 0, 0, 0.9999999999999999, -3.552713678800501e-15, 0)"/>
  <circle cx="445.361" cy="71.859" r="25.825" class="s" style="fill: none; stroke: rgb(15, 14, 18); stroke-width: 0.5; stroke-linecap: round; stroke-linejoin: round; stroke-miterlimit: 30;" transform="matrix(0.9999999999999999, 0, 0, 0.9999999999999999, -3.552713678800501e-15, 0)"/>
  <circle cx="445.361" cy="71.859" r="12.153" class="f" style="fill: rgb(32, 38, 59);" transform="matrix(0.9999999999999999, 0, 0, 0.9999999999999999, -3.552713678800501e-15, 0)"/>
  <circle cx="445.361" cy="71.859" r="15.191" class="s" style="fill: none; stroke: rgb(15, 14, 18); stroke-width: 0.5; stroke-linecap: round; stroke-linejoin: round; stroke-miterlimit: 30;" transform="matrix(0.9999999999999999, 0, 0, 0.9999999999999999, -3.552713678800501e-15, 0)"/>
  <circle cx="539.545" cy="71.859" r="25.825" class="s" style="fill: none; stroke: rgb(15, 14, 18); stroke-width: 0.5; stroke-linecap: round; stroke-linejoin: round; stroke-miterlimit: 30;" transform="matrix(0.9999999999999999, 0, 0, 0.9999999999999999, -3.552713678800501e-15, 0)"/>
  <circle cx="539.545" cy="71.859" r="12.153" class="f" style="fill: rgb(160, 118, 79);" transform="matrix(0.9999999999999999, 0, 0, 0.9999999999999999, -3.552713678800501e-15, 0)"/>
  <circle cx="539.545" cy="71.859" r="15.191" class="s" style="fill: none; stroke: rgb(15, 14, 18); stroke-width: 0.5; stroke-linecap: round; stroke-linejoin: round; stroke-miterlimit: 30;" transform="matrix(0.9999999999999999, 0, 0, 0.9999999999999999, -3.552713678800501e-15, 0)"/>
  <circle cx="633.729" cy="71.859" r="25.825" class="s" style="fill: none; stroke: rgb(15, 14, 18); stroke-width: 0.5; stroke-linecap: round; stroke-linejoin: round; stroke-miterlimit: 30;" transform="matrix(0.9999999999999999, 0, 0, 0.9999999999999999, -3.552713678800501e-15, 0)"/>
  <circle cx="633.729" cy="71.859" r="12.153" class="f" style="fill: rgb(125, 123, 124);" transform="matrix(0.9999999999999999, 0, 0, 0.9999999999999999, -3.552713678800501e-15, 0)"/>
  <circle cx="633.729" cy="71.859" r="15.191" class="s" style="fill: none; stroke: rgb(15, 14, 18); stroke-width: 0.5; stroke-linecap: round; stroke-linejoin: round; stroke-miterlimit: 30;" transform="matrix(0.9999999999999999, 0, 0, 0.9999999999999999, -3.552713678800501e-15, 0)"/>
  <circle cx="727.914" cy="71.859" r="25.825" class="s" style="fill: none; stroke: rgb(15, 14, 18); stroke-width: 0.5; stroke-linecap: round; stroke-linejoin: round; stroke-miterlimit: 30;" transform="matrix(0.9999999999999999, 0, 0, 0.9999999999999999, -3.552713678800501e-15, 0)"/>
  <circle cx="727.914" cy="71.859" r="12.153" class="f" style="fill: rgb(214, 76, 33);" transform="matrix(0.9999999999999999, 0, 0, 0.9999999999999999, -3.552713678800501e-15, 0)"/>
  <circle cx="727.914" cy="71.859" r="15.191" class="s" style="fill: none; stroke: rgb(15, 14, 18); stroke-width: 0.5; stroke-linecap: round; stroke-linejoin: round; stroke-miterlimit: 30;" transform="matrix(0.9999999999999999, 0, 0, 0.9999999999999999, -3.552713678800501e-15, 0)"/>
  <circle cx="139.261" cy="48.312" r="15.191" class="f" style="fill: rgb(248, 243, 242); stroke: rgb(15, 15, 17);" transform="matrix(0.9999999999999999, 0, 0, 0.9999999999999999, -3.552713678800501e-15, 0)"/>
  <path d="M40.675 283.773h9.472M45.077 288.33l-4.557-4.557 4.557-4.557M96.614 283.773h-9.472M92.212 279.216l4.557 4.557-4.558 4.558" class="s" style="fill: none; stroke: rgb(15, 14, 18); stroke-width: 0.5; stroke-linecap: round; stroke-linejoin: round; stroke-miterlimit: 30;" transform="matrix(0.9999999999999999, 0, 0, 0.9999999999999999, -3.552713678800501e-15, 0)"/>
  <path d="M89.155 233.143c0-.503.356-.708.79-.455l6.94 3.537a.482.482 0 0 1 0 .91l-6.94 3.54c-.434.25-.79.045-.79-.455zM142.41 240.25h-6.298a.46.46 0 0 1-.46-.46v-6.218a.46.46 0 0 1 .46-.46h6.3a.46.46 0 0 1 .46.46v6.218a.46.46 0 0 1-.46.46z" class="f" style="fill: rgb(15, 14, 18);" transform="matrix(0.9999999999999999, 0, 0, 0.9999999999999999, -3.552713678800501e-15, 0)"/>
  <path d="M182.935 145.326v-4.913M185.214 145.326v-7.596M187.493 145.326v-3.74M189.77 145.326v-4.913" class="s" style="fill: none; stroke: rgb(15, 14, 18); stroke-width: 0.5; stroke-linecap: round; stroke-linejoin: round; stroke-miterlimit: 30;" transform="matrix(0.9999999999999999, 0, 0, 0.9999999999999999, -3.552713678800501e-15, 0)"/>
  <path d="M793.994 143.635a1.14 1.14 0 1 1-1.138-1.138 1.14 1.14 0 0 1 1.138 1.138zM797.793 139.838a1.14 1.14 0 1 1-1.14-1.14 1.14 1.14 0 0 1 1.14 1.14zM801.59 143.635a1.14 1.14 0 1 1-1.138-1.138 1.14 1.14 0 0 1 1.14 1.138zM805.388 143.635a1.14 1.14 0 1 1-1.138-1.138 1.14 1.14 0 0 1 1.138 1.138z" class="f" style="fill: rgb(15, 14, 18);" transform="matrix(0.9999999999999999, 0, 0, 0.9999999999999999, -3.552713678800501e-15, 0)"/>
  <path d="M92.215 192.065v-8.394M96.758 187.677l-4.543 4.543-4.542-4.543M87.643 194.47h9.086M45.082 184.057v8.203M40.573 188.412l4.51-4.51 4.507 4.51M40.672 194.44h9.016" class="s" style="fill: none; stroke: rgb(15, 14, 18); stroke-width: 0.5; stroke-linecap: round; stroke-linejoin: round; stroke-miterlimit: 30;" transform="matrix(0.9999999999999999, 0, 0, 0.9999999999999999, -3.552713678800501e-15, 0)"/>
  <circle cx="135.562" cy="192.621" r="1.783" class="s" style="fill: none; stroke: rgb(15, 14, 18); stroke-width: 0.5; stroke-linecap: round; stroke-linejoin: round; stroke-miterlimit: 30;" transform="matrix(0.9999999999999999, 0, 0, 0.9999999999999999, -3.552713678800501e-15, 0)"/>
  <circle cx="135.562" cy="186.557" r="1.783" class="s" style="fill: none; stroke: rgb(15, 14, 18); stroke-width: 0.5; stroke-linecap: round; stroke-linejoin: round; stroke-miterlimit: 30;" transform="matrix(0.9999999999999999, 0, 0, 0.9999999999999999, -3.552713678800501e-15, 0)"/>
  <path d="M146.472 192.187l-11.41-3.917M135.063 190.912l11.41-3.917" class="s" style="fill: none; stroke: rgb(15, 14, 18); stroke-width: 0.5; stroke-linecap: round; stroke-linejoin: round; stroke-miterlimit: 30;" transform="matrix(0.9999999999999999, 0, 0, 0.9999999999999999, -3.552713678800501e-15, 0)"/>
  <path d="M45.076 232.428a4.253 4.253 0 1 0 4.255 4.256 4.254 4.254 0 0 0-4.254-4.256z" class="f" style="fill: rgb(15, 14, 18);" transform="matrix(0.9999999999999999, 0, 0, 0.9999999999999999, -3.552713678800501e-15, 0)"/>
  <path d="M380.654 145.155h-13.672v-.76l9.874-9.494h.76v15.192" class="s" style="fill: none; stroke: rgb(15, 14, 18); stroke-width: 0.5; stroke-linecap: round; stroke-linejoin: round; stroke-miterlimit: 30;" transform="matrix(0.9999999999999999, 0, 0, 0.9999999999999999, -3.552713678800501e-15, 0)"/>
  <g class="s" style="fill: none; stroke: rgb(15, 14, 18); stroke-width: 0.5; stroke-linecap: round; stroke-linejoin: round; stroke-miterlimit: 30;" transform="matrix(0.9999999999999999, 0, 0, 0.9999999999999999, -3.552713678800501e-15, 0)">
    <path d="M321.554 146.294a3.798 3.798 0 0 0 3.797 3.798h4.56a3.798 3.798 0 1 0 0-7.595h-4.56M329.91 142.497a3.798 3.798 0 1 0 0-7.596h-4.56a3.798 3.798 0 0 0-3.796 3.8" style="fill: none; stroke: rgb(15, 14, 18); stroke-width: 0.5; stroke-linecap: round; stroke-linejoin: round; stroke-miterlimit: 30;"/>
  </g>
  <path d="M274.787 139.46a4.575 4.575 0 0 1 4.666-4.56h2.966a4.58 4.58 0 0 1 4.63 4.56c0 2.064-1.06 3.037-3.25 4.303l-8.904 5.57v.76h12.153" class="s" style="fill: none; stroke: rgb(15, 14, 18); stroke-width: 0.5; stroke-linecap: round; stroke-linejoin: round; stroke-miterlimit: 30;" transform="matrix(0.9999999999999999, 0, 0, 0.9999999999999999, -3.552713678800501e-15, 0)"/>
  <path d="M233.446 134.9v15.192" class="s" style="fill: none; stroke: rgb(15, 14, 18); stroke-width: 0.5; stroke-linecap: round; stroke-linejoin: round; stroke-miterlimit: 30;" transform="matrix(0.9999999999999999, 0, 0, 0.9999999999999999, -3.552713678800501e-15, 0)"/>
  <path d="M36.874 143.788v.76a1.367 1.367 0 0 0 1.367 1.367 1.367 1.367 0 0 0 1.368-1.367v-4.102a1.367 1.367 0 0 1 1.367-1.367 1.367 1.367 0 0 1 1.367 1.366v4.102a1.367 1.367 0 0 0 1.368 1.367 1.367 1.367 0 0 0 1.367-1.367v-4.102a1.367 1.367 0 0 1 1.367-1.367 1.367 1.367 0 0 1 1.367 1.366v4.102a1.367 1.367 0 0 0 1.368 1.367 1.367 1.367 0 0 0 1.368-1.367v-4.102a1.367 1.367 0 0 1 1.367-1.367 1.367 1.367 0 0 1 1.367 1.366v.76" class="s" style="fill: none; stroke: rgb(15, 14, 18); stroke-width: 0.5; stroke-linecap: round; stroke-linejoin: round; stroke-miterlimit: 30;" transform="matrix(0.9999999999999999, 0, 0, 0.9999999999999999, -3.552713678800501e-15, 0)"/>
  <circle cx="135.008" cy="142.497" r="3.038" class="s" style="fill: none; stroke: rgb(15, 14, 18); stroke-width: 0.5; stroke-linecap: round; stroke-linejoin: round; stroke-miterlimit: 30;" transform="matrix(0.9999999999999999, 0, 0, 0.9999999999999999, -3.552713678800501e-15, 0)"/>
  <circle cx="143.515" cy="142.497" r="3.038" class="s" style="fill: none; stroke: rgb(15, 14, 18); stroke-width: 0.5; stroke-linecap: round; stroke-linejoin: round; stroke-miterlimit: 30;" transform="matrix(0.9999999999999999, 0, 0, 0.9999999999999999, -3.552713678800501e-15, 0)"/>
  <path d="M135.008 145.535h8.507" class="s" style="fill: none; stroke: rgb(15, 14, 18); stroke-width: 0.5; stroke-linecap: round; stroke-linejoin: round; stroke-miterlimit: 30;" transform="matrix(0.9999999999999999, 0, 0, 0.9999999999999999, -3.552713678800501e-15, 0)"/>
  <path d="M141.945 90.847h-5.128a4.19 4.19 0 0 0-4.26 3.82 4.036 4.036 0 0 0 4.03 4.252h1.173a1.507 1.507 0 0 1 1.507 1.506v1.815-1.814a1.507 1.507 0 0 1 1.507-1.507h.943a4.19 4.19 0 0 0 4.258-3.82 4.036 4.036 0 0 0-4.03-4.253zM137.365 98.92h3.616" class="s" style="fill: none; stroke: rgb(15, 14, 18); stroke-width: 0.5; stroke-linecap: round; stroke-linejoin: round; stroke-miterlimit: 30;" transform="matrix(0.9999999999999999, 0, 0, 0.9999999999999999, -3.552713678800501e-15, 0)"/>
  <path d="M185.537 90.088h1.688l3.372 9.654v.98h-8.46v-.98l3.4-9.654zM186.378 98.923l4.883-7.023" class="s" style="fill: none; stroke: rgb(15, 14, 18); stroke-width: 0.5; stroke-linecap: round; stroke-linejoin: round; stroke-miterlimit: 30;" transform="matrix(0.9999999999999999, 0, 0, 0.9999999999999999, -3.552713678800501e-15, 0)"/>
  <circle cx="191.261" cy="91.9" r="1.139" class="f" style="fill: rgb(15, 14, 18);" transform="matrix(0.9999999999999999, 0, 0, 0.9999999999999999, -3.552713678800501e-15, 0)"/>
  <path d="M753.19 147.217a1.6 1.6 0 0 1 1.634-1.595h1.038a1.603 1.603 0 0 1 1.62 1.595c0 .723-.37 1.064-1.137 1.507l-3.117 1.683v.532h4.254" class="s" style="fill: none; stroke: rgb(15, 14, 18); stroke-width: 0.5; stroke-linecap: round; stroke-linejoin: round; stroke-miterlimit: 30;" transform="matrix(0.9999999999999999, 0, 0, 0.9999999999999999, -3.552713678800501e-15, 0)"/>
  <path d="M746.143 150.94v-5.318h.328l1.917 3.857h.164l1.917-3.858h.328v5.317" class="s" style="fill: none; stroke: rgb(15, 14, 18); stroke-width: 0.5; stroke-linecap: round; stroke-linejoin: round; stroke-miterlimit: 30;" transform="matrix(0.9999999999999999, 0, 0, 0.9999999999999999, -3.552713678800501e-15, 0)"/>
  <g class="s" style="fill: none; stroke: rgb(15, 14, 18); stroke-width: 0.5; stroke-linecap: round; stroke-linejoin: round; stroke-miterlimit: 30;" transform="matrix(0.9999999999999999, 0, 0, 0.9999999999999999, -3.552713678800501e-15, 0)">
    <path d="M750.32 137.94a1.9 1.9 0 1 0 0 3.798h2.28a1.9 1.9 0 0 0 0-3.798zM752.6 137.94a1.9 1.9 0 0 0 0-3.798h-2.28a1.9 1.9 0 0 0 0 3.798" style="fill: none; stroke: rgb(15, 14, 18); stroke-width: 0.5; stroke-linecap: round; stroke-linejoin: round; stroke-miterlimit: 30;"/>
  </g>
  <path d="M707.832 145.622v5.317" class="s" style="fill: none; stroke: rgb(15, 14, 18); stroke-width: 0.5; stroke-linecap: round; stroke-linejoin: round; stroke-miterlimit: 30;" transform="matrix(0.9999999999999999, 0, 0, 0.9999999999999999, -3.552713678800501e-15, 0)"/>
  <path d="M700.245 150.94v-5.318h.328l1.916 3.857h.163l1.916-3.858h.327v5.317" class="s" style="fill: none; stroke: rgb(15, 14, 18); stroke-width: 0.5; stroke-linecap: round; stroke-linejoin: round; stroke-miterlimit: 30;" transform="matrix(0.9999999999999999, 0, 0, 0.9999999999999999, -3.552713678800501e-15, 0)"/>
  <path d="M701.785 134.142h6.077v.19l-5.317 7.215v.19" class="s" style="fill: none; stroke: rgb(15, 14, 18); stroke-width: 0.5; stroke-linecap: round; stroke-linejoin: round; stroke-miterlimit: 30;" transform="matrix(0.9999999999999999, 0, 0, 0.9999999999999999, -3.552713678800501e-15, 0)"/>
  <path d="M656.61 148.572a.76.76 0 1 1-.757-.758.76.76 0 0 1 .758.758zM653.764 148.572a.76.76 0 1 1-.758-.758.76.76 0 0 1 .758.758zM659.458 148.572a.76.76 0 1 1-.758-.758.76.76 0 0 1 .758.758zM662.305 148.572a.76.76 0 1 1-.758-.758.76.76 0 0 1 .758.758z" class="f" style="fill: rgb(15, 14, 18);" transform="matrix(0.9999999999999999, 0, 0, 0.9999999999999999, -3.552713678800501e-15, 0)"/>
  <g class="s" style="fill: none; stroke: rgb(15, 14, 18); stroke-width: 0.5; stroke-linecap: round; stroke-linejoin: round; stroke-miterlimit: 30;" transform="matrix(0.9999999999999999, 0, 0, 0.9999999999999999, -3.552713678800501e-15, 0)">
    <path d="M656.136 137.94a1.9 1.9 0 1 0 0 3.798h2.28a1.9 1.9 0 0 0 0-3.798zM660.314 136.04a1.9 1.9 0 0 0-1.9-1.898h-2.278a1.9 1.9 0 0 0-1.9 1.9v3.796" style="fill: none; stroke: rgb(15, 14, 18); stroke-width: 0.5; stroke-linecap: round; stroke-linejoin: round; stroke-miterlimit: 30;"/>
  </g>
  <path d="M615.903 145a4.149 4.149 0 0 1 1.496 3.193" class="s" style="fill: none; stroke: rgb(15, 14, 18); stroke-width: 0.5; stroke-linecap: round; stroke-linejoin: round; stroke-miterlimit: 30;" transform="matrix(0.9999999999999999, 0, 0, 0.9999999999999999, -3.552713678800501e-15, 0)"/>
  <circle cx="606.42" cy="148.508" r="2.431" class="s" style="fill: none; stroke: rgb(15, 14, 18); stroke-width: 0.5; stroke-linecap: round; stroke-linejoin: round; stroke-miterlimit: 30;" transform="matrix(0.9999999999999999, 0, 0, 0.9999999999999999, -3.552713678800501e-15, 0)"/>
  <circle cx="613.225" cy="148.508" r="2.431" class="s" style="fill: none; stroke: rgb(15, 14, 18); stroke-width: 0.5; stroke-linecap: round; stroke-linejoin: round; stroke-miterlimit: 30;" transform="matrix(0.9999999999999999, 0, 0, 0.9999999999999999, -3.552713678800501e-15, 0)"/>
  <path d="M606.42 150.94h6.805" class="s" style="fill: none; stroke: rgb(15, 14, 18); stroke-width: 0.5; stroke-linecap: round; stroke-linejoin: round; stroke-miterlimit: 30;" transform="matrix(0.9999999999999999, 0, 0, 0.9999999999999999, -3.552713678800501e-15, 0)"/>
  <g class="s" style="fill: none; stroke: rgb(15, 14, 18); stroke-width: 0.5; stroke-linecap: round; stroke-linejoin: round; stroke-miterlimit: 30;" transform="matrix(0.9999999999999999, 0, 0, 0.9999999999999999, -3.552713678800501e-15, 0)">
    <path d="M607.145 139.838a1.9 1.9 0 0 1 1.9-1.898h2.278a1.9 1.9 0 0 1 0 3.797h-4.178M612.842 134.142h-5.697v5.696" style="fill: none; stroke: rgb(15, 14, 18); stroke-width: 0.5; stroke-linecap: round; stroke-linejoin: round; stroke-miterlimit: 30;"/>
  </g>
  <g class="s" style="fill: none; stroke: rgb(15, 14, 18); stroke-width: 0.5; stroke-linecap: round; stroke-linejoin: round; stroke-miterlimit: 30;" transform="matrix(0.9999999999999999, 0, 0, 0.9999999999999999, -3.552713678800501e-15, 0)">
    <path d="M472.078 145.622h3.987M474.072 145.622v5.317" style="fill: none; stroke: rgb(15, 14, 18); stroke-width: 0.5; stroke-linecap: round; stroke-linejoin: round; stroke-miterlimit: 30;"/>
  </g>
  <path d="M467.32 145.622v3.656a1.661 1.661 0 0 0 3.324 0v-3.656" class="s" style="fill: none; stroke: rgb(15, 14, 18); stroke-width: 0.5; stroke-linecap: round; stroke-linejoin: round; stroke-miterlimit: 30;" transform="matrix(0.9999999999999999, 0, 0, 0.9999999999999999, -3.552713678800501e-15, 0)"/>
  <path d="M461.596 147.45v1.661a1.828 1.828 0 1 0 3.655 0v-1.66a1.828 1.828 0 1 0-3.654 0z" class="s" style="fill: none; stroke: rgb(15, 14, 18); stroke-width: 0.5; stroke-linecap: round; stroke-linejoin: round; stroke-miterlimit: 30;" transform="matrix(0.9999999999999999, 0, 0, 0.9999999999999999, -3.552713678800501e-15, 0)"/>
  <path d="M465.84 136.42a2.287 2.287 0 0 1 2.334-2.28h1.483a2.29 2.29 0 0 1 2.315 2.28c0 1.033-.53 1.52-1.624 2.152l-4.452 2.785v.38h6.076" class="s" style="fill: none; stroke: rgb(15, 14, 18); stroke-width: 0.5; stroke-linecap: round; stroke-linejoin: round; stroke-miterlimit: 30;" transform="matrix(0.9999999999999999, 0, 0, 0.9999999999999999, -3.552713678800501e-15, 0)"/>
  <path d="M419.536 145.622v5.317" class="s" style="fill: none; stroke: rgb(15, 14, 18); stroke-width: 0.5; stroke-linecap: round; stroke-linejoin: round; stroke-miterlimit: 30;" transform="matrix(0.9999999999999999, 0, 0, 0.9999999999999999, -3.552713678800501e-15, 0)"/>
  <path d="M421.814 150.94v-5.318h.333l2.658 5.317h.332v-5.318" class="s" style="fill: none; stroke: rgb(15, 14, 18); stroke-width: 0.5; stroke-linecap: round; stroke-linejoin: round; stroke-miterlimit: 30;" transform="matrix(0.9999999999999999, 0, 0, 0.9999999999999999, -3.552713678800501e-15, 0)"/>
  <path d="M421.814 134.142v7.595" class="s" style="fill: none; stroke: rgb(15, 14, 18); stroke-width: 0.5; stroke-linecap: round; stroke-linejoin: round; stroke-miterlimit: 30;" transform="matrix(0.9999999999999999, 0, 0, 0.9999999999999999, -3.552713678800501e-15, 0)"/>
  <path d="M566.312 139.27h-6.95v-.38l4.937-4.748h.38v7.595" class="s" style="fill: none; stroke: rgb(15, 14, 18); stroke-width: 0.5; stroke-linecap: round; stroke-linejoin: round; stroke-miterlimit: 30;" transform="matrix(0.9999999999999999, 0, 0, 0.9999999999999999, -3.552713678800501e-15, 0)"/>
  <path d="M564.914 150.938v-5.316h-3.532a1.33 1.33 0 0 0-1.33 1.33 1.328 1.328 0 0 0 1.33 1.33h3.532" class="s" style="fill: none; stroke: rgb(15, 14, 18); stroke-width: 0.5; stroke-linecap: round; stroke-linejoin: round; stroke-miterlimit: 30;" transform="matrix(0.9999999999999999, 0, 0, 0.9999999999999999, -3.552713678800501e-15, 0)"/>
  <path d="M562.18 148.414l-1.994 2.392v.133" class="s" style="fill: none; stroke: rgb(15, 14, 18); stroke-width: 0.5; stroke-linecap: round; stroke-linejoin: round; stroke-miterlimit: 30;" transform="matrix(0.9999999999999999, 0, 0, 0.9999999999999999, -3.552713678800501e-15, 0)"/>
  <g class="s" style="fill: none; stroke: rgb(15, 14, 18); stroke-width: 0.5; stroke-linecap: round; stroke-linejoin: round; stroke-miterlimit: 30;" transform="matrix(0.9999999999999999, 0, 0, 0.9999999999999999, -3.552713678800501e-15, 0)">
    <path d="M512.96 139.838a1.9 1.9 0 0 0 1.9 1.9h2.278a1.9 1.9 0 0 0 0-3.798h-2.278M517.138 137.94a1.9 1.9 0 0 0 0-3.798h-2.278a1.9 1.9 0 0 0-1.9 1.9" style="fill: none; stroke: rgb(15, 14, 18); stroke-width: 0.5; stroke-linecap: round; stroke-linejoin: round; stroke-miterlimit: 30;"/>
  </g>
  <path d="M517.623 147.215a.195.195 0 0 1-.32.177l-2.35-1.32a.19.19 0 0 1 0-.353l2.35-1.395a.195.195 0 0 1 .32.177z" class="f" style="fill: rgb(15, 14, 18);" transform="matrix(0.9999999999999999, 0, 0, 0.9999999999999999, -3.552713678800501e-15, 0)"/>
  <path d="M513.395 145.915h-.326a2.28 2.28 0 0 0-2.28 2.278 2.28 2.28 0 0 0 2.28 2.28h5.858a2.28 2.28 0 0 0 2.28-2.28 2.28 2.28 0 0 0-2.28-2.278h-1.627" class="s" style="fill: none; stroke: rgb(15, 14, 18); stroke-width: 0.5; stroke-linecap: round; stroke-linejoin: round; stroke-miterlimit: 30;" transform="matrix(0.9999999999999999, 0, 0, 0.9999999999999999, -3.552713678800501e-15, 0)"/>
  <path d="M799.69 90.087a1.14 1.14 0 1 1-1.138-1.14 1.14 1.14 0 0 1 1.14 1.14z" class="f" style="fill: rgb(15, 14, 18);" transform="matrix(0.9999999999999999, 0, 0, 0.9999999999999999, -3.552713678800501e-15, 0)"/>
  <rect x="796.351" y="97.683" width="3.988" height="5.317" rx="1.661" class="s" style="fill: none; stroke: rgb(15, 14, 18); stroke-width: 0.5; stroke-linecap: round; stroke-linejoin: round; stroke-miterlimit: 30;" transform="matrix(0.9999999999999999, 0, 0, 0.9999999999999999, -3.552713678800501e-15, 0)"/>
  <path d="M802.332 103v-5.317h.37l1.664 3.19h.185l1.666-3.19h.37V103" class="s" style="fill: none; stroke: rgb(15, 14, 18); stroke-width: 0.5; stroke-linecap: round; stroke-linejoin: round; stroke-miterlimit: 30;" transform="matrix(0.9999999999999999, 0, 0, 0.9999999999999999, -3.552713678800501e-15, 0)"/>
  <path d="M794.473 99.012a1.662 1.662 0 0 0-1.628-1.33h-.665a1.661 1.661 0 0 0-1.661 1.663v1.994a1.661 1.661 0 0 0 1.66 1.66h.665a1.662 1.662 0 0 0 1.628-1.33" class="s" style="fill: none; stroke: rgb(15, 14, 18); stroke-width: 0.5; stroke-linecap: round; stroke-linejoin: round; stroke-miterlimit: 30;" transform="matrix(0.9999999999999999, 0, 0, 0.9999999999999999, -3.552713678800501e-15, 0)"/>
  <circle cx="798.552" cy="90.088" r="3.798" class="s" style="fill: none; stroke: rgb(15, 14, 18); stroke-width: 0.5; stroke-linecap: round; stroke-linejoin: round; stroke-miterlimit: 30;" transform="matrix(0.9999999999999999, 0, 0, 0.9999999999999999, -3.552713678800501e-15, 0)"/>
  <circle cx="92.169" cy="142.497" r="4.557" class="s" style="fill: none; stroke: rgb(15, 14, 18); stroke-width: 0.5; stroke-linecap: round; stroke-linejoin: round; stroke-miterlimit: 30;" transform="matrix(0.9999999999999999, 0, 0, 0.9999999999999999, -3.552713678800501e-15, 0)"/>
  <path d="M92.17 143.256v5.608" class="s" style="fill: none; stroke: rgb(15, 14, 18); stroke-width: 0.5; stroke-linecap: round; stroke-linejoin: round; stroke-miterlimit: 30;" transform="matrix(0.9999999999999999, 0, 0, 0.9999999999999999, -3.552713678800501e-15, 0)"/>
  <rect x="91.03" y="141.226" width="2.279" height="2.279" rx=".304" class="f" style="fill: rgb(15, 14, 18);" transform="matrix(0.9999999999999999, 0, 0, 0.9999999999999999, -3.552713678800501e-15, 0)"/>
  <path d="M133.627 281.99a1.647 1.647 0 0 0-1.71-1.635h-.57a1.71 1.71 0 0 0-1.708 1.71 1.38 1.38 0 0 0 .123.558 1.563 1.563 0 0 0 .932.753l1.806.8a1.716 1.716 0 0 1 1.04.89 1.177 1.177 0 0 1 .086.416 1.647 1.647 0 0 1-1.634 1.71h-.644a1.647 1.647 0 0 1-1.71-1.634" class="s" style="fill: none; stroke: rgb(15, 14, 18); stroke-width: 0.5; stroke-linecap: round; stroke-linejoin: round; stroke-miterlimit: 30;" transform="matrix(0.9999999999999999, 0, 0, 0.9999999999999999, -3.552713678800501e-15, 0)"/>
  <path d="M140.767 283.014v4.177M140.767 280.355v.266M143.566 287.19v-5.382a1.453 1.453 0 0 1 1.452-1.453h.3M142.616 283.014h2.06M147.435 280.355l-.013 5.945v-.063a1.06 1.06 0 0 0 1.06 1.06M146.324 283.014h2.222M135.64 280.355v6.836M138.8 287.19v-2.638a1.39 1.39 0 0 0-1.376-1.453h-.332a1.452 1.452 0 0 0-1.452 1.452" class="s" style="fill: none; stroke: rgb(15, 14, 18); stroke-width: 0.5; stroke-linecap: round; stroke-linejoin: round; stroke-miterlimit: 30;" transform="matrix(0.9999999999999999, 0, 0, 0.9999999999999999, -3.552713678800501e-15, 0)"/>
  <circle cx="800.831" cy="45.983" r="2.279" class="f" style="fill: rgb(15, 14, 18);" transform="matrix(0.9999999999999999, 0, 0, 0.9999999999999999, -3.552713678800501e-15, 0)"/>
  <path d="M800.83 45.983l-6.886 6.887" class="s" style="fill: none; stroke: rgb(15, 14, 18); stroke-width: 0.5; stroke-linecap: round; stroke-linejoin: round; stroke-miterlimit: 30;" transform="matrix(0.9999999999999999, 0, 0, 0.9999999999999999, -3.552713678800501e-15, 0)"/>
  <rect x="209.9" y="24.766" width="188.369" height="94.184" rx="3.798" class="f" style="fill: rgb(15, 14, 18);" transform="matrix(0.9999999999999999, 0, 0, 0.9999999999999999, -3.552713678800501e-15, 0)"/>
  <path d="M40.675 283.773h9.472M45.077 288.33l-4.557-4.557 4.557-4.557M96.614 283.773h-9.472M92.212 279.216l4.557 4.557-4.558 4.558" class="s" style="fill: none; stroke: rgb(15, 14, 18); stroke-width: 0.5; stroke-linecap: round; stroke-linejoin: round; stroke-miterlimit: 30;" transform="matrix(0.9999999999999999, 0, 0, 0.9999999999999999, -3.552713678800501e-15, 0)"/>
  <path d="M89.155 233.143c0-.503.356-.708.79-.455l6.94 3.537a.482.482 0 0 1 0 .91l-6.94 3.54c-.434.25-.79.045-.79-.455zM142.41 240.25h-6.298a.46.46 0 0 1-.46-.46v-6.218a.46.46 0 0 1 .46-.46h6.3a.46.46 0 0 1 .46.46v6.218a.46.46 0 0 1-.46.46z" class="f" style="fill: rgb(15, 14, 18);" transform="matrix(0.9999999999999999, 0, 0, 0.9999999999999999, -3.552713678800501e-15, 0)"/>
  <path d="M182.935 145.326v-4.913M185.214 145.326v-7.596M187.493 145.326v-3.74M189.77 145.326v-4.913" class="s" style="fill: none; stroke: rgb(15, 14, 18); stroke-width: 0.5; stroke-linecap: round; stroke-linejoin: round; stroke-miterlimit: 30;" transform="matrix(0.9999999999999999, 0, 0, 0.9999999999999999, -3.552713678800501e-15, 0)"/>
  <path d="M656.61 148.572a.76.76 0 1 1-.757-.758.76.76 0 0 1 .758.758zM653.764 148.572a.76.76 0 1 1-.758-.758.76.76 0 0 1 .758.758zM659.458 148.572a.76.76 0 1 1-.758-.758.76.76 0 0 1 .758.758zM662.305 148.572a.76.76 0 1 1-.758-.758.76.76 0 0 1 .758.758zM793.994 143.635a1.14 1.14 0 1 1-1.138-1.138 1.14 1.14 0 0 1 1.138 1.138zM799.69 90.087a1.14 1.14 0 1 1-1.138-1.14 1.14 1.14 0 0 1 1.14 1.14zM797.793 139.838a1.14 1.14 0 1 1-1.14-1.14 1.14 1.14 0 0 1 1.14 1.14zM801.59 143.635a1.14 1.14 0 1 1-1.138-1.138 1.14 1.14 0 0 1 1.14 1.138zM805.388 143.635a1.14 1.14 0 1 1-1.138-1.138 1.14 1.14 0 0 1 1.138 1.138z" class="f" style="fill: rgb(15, 14, 18);" transform="matrix(0.9999999999999999, 0, 0, 0.9999999999999999, -3.552713678800501e-15, 0)"/>
  <path d="M185.537 90.088h1.688l3.372 9.654v.98h-8.46v-.98l3.4-9.654zM186.378 98.923l4.883-7.023M92.215 192.065v-8.394M96.758 187.677l-4.543 4.543-4.542-4.543M87.643 194.47h9.086M45.082 184.057v8.203M40.573 188.412l4.51-4.51 4.507 4.51M40.672 194.44h9.016" class="s" style="fill: none; stroke: rgb(15, 14, 18); stroke-width: 0.5; stroke-linecap: round; stroke-linejoin: round; stroke-miterlimit: 30;" transform="matrix(0.9999999999999999, 0, 0, 0.9999999999999999, -3.552713678800501e-15, 0)"/>
  <circle cx="135.562" cy="192.621" r="1.783" class="s" style="fill: none; stroke: rgb(15, 14, 18); stroke-width: 0.5; stroke-linecap: round; stroke-linejoin: round; stroke-miterlimit: 30;" transform="matrix(0.9999999999999999, 0, 0, 0.9999999999999999, -3.552713678800501e-15, 0)"/>
  <circle cx="135.562" cy="186.557" r="1.783" class="s" style="fill: none; stroke: rgb(15, 14, 18); stroke-width: 0.5; stroke-linecap: round; stroke-linejoin: round; stroke-miterlimit: 30;" transform="matrix(0.9999999999999999, 0, 0, 0.9999999999999999, -3.552713678800501e-15, 0)"/>
  <path d="M146.472 192.187l-11.41-3.917M135.063 190.912l11.41-3.917" class="s" style="fill: none; stroke: rgb(15, 14, 18); stroke-width: 0.5; stroke-linecap: round; stroke-linejoin: round; stroke-miterlimit: 30;" transform="matrix(0.9999999999999999, 0, 0, 0.9999999999999999, -3.552713678800501e-15, 0)"/>
  <path d="M419.536 145.622v5.317" class="s" style="fill: none; stroke: rgb(15, 14, 18); stroke-width: 0.5; stroke-linecap: round; stroke-linejoin: round; stroke-miterlimit: 30;" transform="matrix(0.9999999999999999, 0, 0, 0.9999999999999999, -3.552713678800501e-15, 0)"/>
  <path d="M421.814 150.94v-5.318h.333l2.658 5.317h.332v-5.318" class="s" style="fill: none; stroke: rgb(15, 14, 18); stroke-width: 0.5; stroke-linecap: round; stroke-linejoin: round; stroke-miterlimit: 30;" transform="matrix(0.9999999999999999, 0, 0, 0.9999999999999999, -3.552713678800501e-15, 0)"/>
  <path d="M472.078 145.622h3.987M474.072 145.622v5.317M467.32 145.622v3.656a1.661 1.661 0 0 0 3.324 0v-3.656" class="s" style="fill: none; stroke: rgb(15, 14, 18); stroke-width: 0.5; stroke-linecap: round; stroke-linejoin: round; stroke-miterlimit: 30;" transform="matrix(0.9999999999999999, 0, 0, 0.9999999999999999, -3.552713678800501e-15, 0)"/>
  <path d="M461.596 147.45v1.661a1.828 1.828 0 1 0 3.655 0v-1.66a1.828 1.828 0 1 0-3.654 0z" class="s" style="fill: none; stroke: rgb(15, 14, 18); stroke-width: 0.5; stroke-linecap: round; stroke-linejoin: round; stroke-miterlimit: 30;" transform="matrix(0.9999999999999999, 0, 0, 0.9999999999999999, -3.552713678800501e-15, 0)"/>
  <path d="M753.19 147.217a1.6 1.6 0 0 1 1.634-1.595h1.038a1.603 1.603 0 0 1 1.62 1.595c0 .723-.37 1.064-1.137 1.507l-3.117 1.683v.532h4.254" class="s" style="fill: none; stroke: rgb(15, 14, 18); stroke-width: 0.5; stroke-linecap: round; stroke-linejoin: round; stroke-miterlimit: 30;" transform="matrix(0.9999999999999999, 0, 0, 0.9999999999999999, -3.552713678800501e-15, 0)"/>
  <path d="M746.143 150.94v-5.318h.328l1.917 3.857h.164l1.917-3.858h.328v5.317" class="s" style="fill: none; stroke: rgb(15, 14, 18); stroke-width: 0.5; stroke-linecap: round; stroke-linejoin: round; stroke-miterlimit: 30;" transform="matrix(0.9999999999999999, 0, 0, 0.9999999999999999, -3.552713678800501e-15, 0)"/>
  <path d="M707.832 145.622v5.317" class="s" style="fill: none; stroke: rgb(15, 14, 18); stroke-width: 0.5; stroke-linecap: round; stroke-linejoin: round; stroke-miterlimit: 30;" transform="matrix(0.9999999999999999, 0, 0, 0.9999999999999999, -3.552713678800501e-15, 0)"/>
  <path d="M700.245 150.94v-5.318h.328l1.916 3.857h.163l1.916-3.858h.327v5.317" class="s" style="fill: none; stroke: rgb(15, 14, 18); stroke-width: 0.5; stroke-linecap: round; stroke-linejoin: round; stroke-miterlimit: 30;" transform="matrix(0.9999999999999999, 0, 0, 0.9999999999999999, -3.552713678800501e-15, 0)"/>
  <path d="M45.076 232.428a4.253 4.253 0 1 0 4.255 4.256 4.254 4.254 0 0 0-4.254-4.256z" class="f" style="fill: rgb(242, 75, 10);" transform="matrix(0.9999999999999999, 0, 0, 0.9999999999999999, -3.552713678800501e-15, 0)"/>
  <path d="M380.654 145.155h-13.672v-.76l9.874-9.494h.76v15.192" class="s" style="fill: none; stroke: rgb(15, 14, 18); stroke-width: 0.5; stroke-linecap: round; stroke-linejoin: round; stroke-miterlimit: 30;" transform="matrix(0.9999999999999999, 0, 0, 0.9999999999999999, -3.552713678800501e-15, 0)"/>
  <path d="M321.554 146.294a3.798 3.798 0 0 0 3.797 3.798h4.56a3.798 3.798 0 1 0 0-7.595h-4.56M329.91 142.497a3.798 3.798 0 1 0 0-7.596h-4.56a3.798 3.798 0 0 0-3.796 3.8" class="s" style="fill: none; stroke: rgb(15, 14, 18); stroke-width: 0.5; stroke-linecap: round; stroke-linejoin: round; stroke-miterlimit: 30;" transform="matrix(0.9999999999999999, 0, 0, 0.9999999999999999, -3.552713678800501e-15, 0)"/>
  <path d="M274.787 139.46a4.575 4.575 0 0 1 4.666-4.56h2.966a4.58 4.58 0 0 1 4.63 4.56c0 2.064-1.06 3.037-3.25 4.303l-8.904 5.57v.76h12.153" class="s" style="fill: none; stroke: rgb(15, 14, 18); stroke-width: 0.5; stroke-linecap: round; stroke-linejoin: round; stroke-miterlimit: 30;" transform="matrix(0.9999999999999999, 0, 0, 0.9999999999999999, -3.552713678800501e-15, 0)"/>
  <path d="M233.446 134.9v15.192" class="s" style="fill: none; stroke: rgb(15, 14, 18); stroke-width: 0.5; stroke-linecap: round; stroke-linejoin: round; stroke-miterlimit: 30;" transform="matrix(0.9999999999999999, 0, 0, 0.9999999999999999, -3.552713678800501e-15, 0)"/>
  <path d="M36.874 143.788v.76a1.367 1.367 0 0 0 1.367 1.367 1.367 1.367 0 0 0 1.368-1.367v-4.102a1.367 1.367 0 0 1 1.367-1.367 1.367 1.367 0 0 1 1.367 1.366v4.102a1.367 1.367 0 0 0 1.368 1.367 1.367 1.367 0 0 0 1.367-1.367v-4.102a1.367 1.367 0 0 1 1.367-1.367 1.367 1.367 0 0 1 1.367 1.366v4.102a1.367 1.367 0 0 0 1.368 1.367 1.367 1.367 0 0 0 1.368-1.367v-4.102a1.367 1.367 0 0 1 1.367-1.367 1.367 1.367 0 0 1 1.367 1.366v.76" class="s" style="fill: none; stroke: rgb(15, 14, 18); stroke-width: 0.5; stroke-linecap: round; stroke-linejoin: round; stroke-miterlimit: 30;" transform="matrix(0.9999999999999999, 0, 0, 0.9999999999999999, -3.552713678800501e-15, 0)"/>
  <circle cx="92.169" cy="142.497" r="4.557" class="s" style="fill: none; stroke: rgb(15, 14, 18); stroke-width: 0.5; stroke-linecap: round; stroke-linejoin: round; stroke-miterlimit: 30;" transform="matrix(0.9999999999999999, 0, 0, 0.9999999999999999, -3.552713678800501e-15, 0)"/>
  <path d="M92.17 143.256v5.608" class="s" style="fill: none; stroke: rgb(15, 14, 18); stroke-width: 0.5; stroke-linecap: round; stroke-linejoin: round; stroke-miterlimit: 30;" transform="matrix(0.9999999999999999, 0, 0, 0.9999999999999999, -3.552713678800501e-15, 0)"/>
  <circle cx="135.008" cy="142.497" r="3.038" class="s" style="fill: none; stroke: rgb(15, 14, 18); stroke-width: 0.5; stroke-linecap: round; stroke-linejoin: round; stroke-miterlimit: 30;" transform="matrix(0.9999999999999999, 0, 0, 0.9999999999999999, -3.552713678800501e-15, 0)"/>
  <circle cx="143.515" cy="142.497" r="3.038" class="s" style="fill: none; stroke: rgb(15, 14, 18); stroke-width: 0.5; stroke-linecap: round; stroke-linejoin: round; stroke-miterlimit: 30;" transform="matrix(0.9999999999999999, 0, 0, 0.9999999999999999, -3.552713678800501e-15, 0)"/>
  <path d="M135.008 145.535h8.507M615.903 145a4.149 4.149 0 0 1 1.496 3.193" class="s" style="fill: none; stroke: rgb(15, 14, 18); stroke-width: 0.5; stroke-linecap: round; stroke-linejoin: round; stroke-miterlimit: 30;" transform="matrix(0.9999999999999999, 0, 0, 0.9999999999999999, -3.552713678800501e-15, 0)"/>
  <circle cx="606.42" cy="148.508" r="2.431" class="s" style="fill: none; stroke: rgb(15, 14, 18); stroke-width: 0.5; stroke-linecap: round; stroke-linejoin: round; stroke-miterlimit: 30;" transform="matrix(0.9999999999999999, 0, 0, 0.9999999999999999, -3.552713678800501e-15, 0)"/>
  <circle cx="613.225" cy="148.508" r="2.431" class="s" style="fill: none; stroke: rgb(15, 14, 18); stroke-width: 0.5; stroke-linecap: round; stroke-linejoin: round; stroke-miterlimit: 30;" transform="matrix(0.9999999999999999, 0, 0, 0.9999999999999999, -3.552713678800501e-15, 0)"/>
  <path d="M606.42 150.94h6.805" class="s" style="fill: none; stroke: rgb(15, 14, 18); stroke-width: 0.5; stroke-linecap: round; stroke-linejoin: round; stroke-miterlimit: 30;" transform="matrix(0.9999999999999999, 0, 0, 0.9999999999999999, -3.552713678800501e-15, 0)"/>
  <path d="M141.945 90.847h-5.128a4.19 4.19 0 0 0-4.26 3.82 4.036 4.036 0 0 0 4.03 4.252h1.173a1.507 1.507 0 0 1 1.507 1.506v1.815-1.814a1.507 1.507 0 0 1 1.507-1.507h.943a4.19 4.19 0 0 0 4.258-3.82 4.036 4.036 0 0 0-4.03-4.253zM137.365 98.92h3.616" class="s" style="fill: none; stroke: rgb(15, 14, 18); stroke-width: 0.5; stroke-linecap: round; stroke-linejoin: round; stroke-miterlimit: 30;" transform="matrix(0.9999999999999999, 0, 0, 0.9999999999999999, -3.552713678800501e-15, 0)"/>
  <circle cx="191.261" cy="91.9" r="1.139" class="f" style="fill: rgb(15, 14, 18);" transform="matrix(0.9999999999999999, 0, 0, 0.9999999999999999, -3.552713678800501e-15, 0)"/>
  <rect x="796.351" y="97.683" width="3.988" height="5.317" rx="1.661" class="s" style="fill: none; stroke: rgb(15, 14, 18); stroke-width: 0.5; stroke-linecap: round; stroke-linejoin: round; stroke-miterlimit: 30;" transform="matrix(0.9999999999999999, 0, 0, 0.9999999999999999, -3.552713678800501e-15, 0)"/>
  <path d="M802.332 103v-5.317h.37l1.664 3.19h.185l1.666-3.19h.37V103" class="s" style="fill: none; stroke: rgb(15, 14, 18); stroke-width: 0.5; stroke-linecap: round; stroke-linejoin: round; stroke-miterlimit: 30;" transform="matrix(0.9999999999999999, 0, 0, 0.9999999999999999, -3.552713678800501e-15, 0)"/>
  <path d="M794.473 99.012a1.662 1.662 0 0 0-1.628-1.33h-.665a1.661 1.661 0 0 0-1.661 1.663v1.994a1.661 1.661 0 0 0 1.66 1.66h.665a1.662 1.662 0 0 0 1.628-1.33" class="s" style="fill: none; stroke: rgb(15, 14, 18); stroke-width: 0.5; stroke-linecap: round; stroke-linejoin: round; stroke-miterlimit: 30;" transform="matrix(0.9999999999999999, 0, 0, 0.9999999999999999, -3.552713678800501e-15, 0)"/>
  <path d="M750.32 137.94a1.9 1.9 0 1 0 0 3.798h2.28a1.9 1.9 0 0 0 0-3.798zM752.6 137.94a1.9 1.9 0 0 0 0-3.798h-2.28a1.9 1.9 0 0 0 0 3.798" class="s" style="fill: none; stroke: rgb(15, 14, 18); stroke-width: 0.5; stroke-linecap: round; stroke-linejoin: round; stroke-miterlimit: 30;" transform="matrix(0.9999999999999999, 0, 0, 0.9999999999999999, -3.552713678800501e-15, 0)"/>
  <path d="M701.785 134.142h6.077v.19l-5.317 7.215v.19" class="s" style="fill: none; stroke: rgb(15, 14, 18); stroke-width: 0.5; stroke-linecap: round; stroke-linejoin: round; stroke-miterlimit: 30;" transform="matrix(0.9999999999999999, 0, 0, 0.9999999999999999, -3.552713678800501e-15, 0)"/>
  <path d="M656.136 137.94a1.9 1.9 0 1 0 0 3.798h2.28a1.9 1.9 0 0 0 0-3.798zM660.314 136.04a1.9 1.9 0 0 0-1.9-1.898h-2.278a1.9 1.9 0 0 0-1.9 1.9v3.796M607.145 139.838a1.9 1.9 0 0 1 1.9-1.898h2.278a1.9 1.9 0 0 1 0 3.797h-4.178M612.842 134.142h-5.697v5.696" class="s" style="fill: none; stroke: rgb(15, 14, 18); stroke-width: 0.5; stroke-linecap: round; stroke-linejoin: round; stroke-miterlimit: 30;" transform="matrix(0.9999999999999999, 0, 0, 0.9999999999999999, -3.552713678800501e-15, 0)"/>
  <path d="M566.312 139.27h-6.95v-.38l4.937-4.748h.38v7.595" class="s" style="fill: none; stroke: rgb(15, 14, 18); stroke-width: 0.5; stroke-linecap: round; stroke-linejoin: round; stroke-miterlimit: 30;" transform="matrix(0.9999999999999999, 0, 0, 0.9999999999999999, -3.552713678800501e-15, 0)"/>
  <path d="M512.96 139.838a1.9 1.9 0 0 0 1.9 1.9h2.278a1.9 1.9 0 0 0 0-3.798h-2.278M517.138 137.94a1.9 1.9 0 0 0 0-3.798h-2.278a1.9 1.9 0 0 0-1.9 1.9" class="s" style="fill: none; stroke: rgb(15, 14, 18); stroke-width: 0.5; stroke-linecap: round; stroke-linejoin: round; stroke-miterlimit: 30;" transform="matrix(0.9999999999999999, 0, 0, 0.9999999999999999, -3.552713678800501e-15, 0)"/>
  <path d="M465.84 136.42a2.287 2.287 0 0 1 2.334-2.28h1.483a2.29 2.29 0 0 1 2.315 2.28c0 1.033-.53 1.52-1.624 2.152l-4.452 2.785v.38h6.076" class="s" style="fill: none; stroke: rgb(15, 14, 18); stroke-width: 0.5; stroke-linecap: round; stroke-linejoin: round; stroke-miterlimit: 30;" transform="matrix(0.9999999999999999, 0, 0, 0.9999999999999999, -3.552713678800501e-15, 0)"/>
  <path d="M421.814 134.142v7.595" class="s" style="fill: none; stroke: rgb(15, 14, 18); stroke-width: 0.5; stroke-linecap: round; stroke-linejoin: round; stroke-miterlimit: 30;" transform="matrix(0.9999999999999999, 0, 0, 0.9999999999999999, -3.552713678800501e-15, 0)"/>
  <path d="M564.914 150.938v-5.316h-3.532a1.33 1.33 0 0 0-1.33 1.33 1.328 1.328 0 0 0 1.33 1.33h3.532" class="s" style="fill: none; stroke: rgb(15, 14, 18); stroke-width: 0.5; stroke-linecap: round; stroke-linejoin: round; stroke-miterlimit: 30;" transform="matrix(0.9999999999999999, 0, 0, 0.9999999999999999, -3.552713678800501e-15, 0)"/>
  <path d="M562.18 148.414l-1.994 2.392v.133" class="s" style="fill: none; stroke: rgb(15, 14, 18); stroke-width: 0.5; stroke-linecap: round; stroke-linejoin: round; stroke-miterlimit: 30;" transform="matrix(0.9999999999999999, 0, 0, 0.9999999999999999, -3.552713678800501e-15, 0)"/>
  <path d="M517.623 147.215a.195.195 0 0 1-.32.177l-2.35-1.32a.19.19 0 0 1 0-.353l2.35-1.395a.195.195 0 0 1 .32.177z" class="f" style="fill: rgb(15, 14, 18);" transform="matrix(0.9999999999999999, 0, 0, 0.9999999999999999, -3.552713678800501e-15, 0)"/>
  <path d="M513.395 145.915h-.326a2.28 2.28 0 0 0-2.28 2.278 2.28 2.28 0 0 0 2.28 2.28h5.858a2.28 2.28 0 0 0 2.28-2.28 2.28 2.28 0 0 0-2.28-2.278h-1.627" class="s" style="fill: none; stroke: rgb(15, 14, 18); stroke-width: 0.5; stroke-linecap: round; stroke-linejoin: round; stroke-miterlimit: 30;" transform="matrix(0.9999999999999999, 0, 0, 0.9999999999999999, -3.552713678800501e-15, 0)"/>
  <circle cx="798.552" cy="90.088" r="3.798" class="s" style="fill: none; stroke: rgb(15, 14, 18); stroke-width: 0.5; stroke-linecap: round; stroke-linejoin: round; stroke-miterlimit: 30;" transform="matrix(0.9999999999999999, 0, 0, 0.9999999999999999, -3.552713678800501e-15, 0)"/>
  <rect x="91.03" y="141.226" width="2.279" height="2.279" rx=".304" class="f" style="fill: rgb(15, 14, 18);" transform="matrix(0.9999999999999999, 0, 0, 0.9999999999999999, -3.552713678800501e-15, 0)"/>
  <path d="M133.627 281.99a1.647 1.647 0 0 0-1.71-1.635h-.57a1.71 1.71 0 0 0-1.708 1.71 1.38 1.38 0 0 0 .123.558 1.563 1.563 0 0 0 .932.753l1.806.8a1.716 1.716 0 0 1 1.04.89 1.177 1.177 0 0 1 .086.416 1.647 1.647 0 0 1-1.634 1.71h-.644a1.647 1.647 0 0 1-1.71-1.634" class="s" style="fill: none; stroke: rgb(15, 14, 18); stroke-width: 0.5; stroke-linecap: round; stroke-linejoin: round; stroke-miterlimit: 30;" transform="matrix(0.9999999999999999, 0, 0, 0.9999999999999999, -3.552713678800501e-15, 0)"/>
  <path d="M140.767 283.014v4.177M140.767 280.355v.266M143.566 287.19v-5.382a1.453 1.453 0 0 1 1.452-1.453h.3M142.616 283.014h2.06M147.435 280.355l-.013 5.945v-.063a1.06 1.06 0 0 0 1.06 1.06M146.324 283.014h2.222M135.64 280.355v6.836M138.8 287.19v-2.638a1.39 1.39 0 0 0-1.376-1.453h-.332a1.452 1.452 0 0 0-1.452 1.452" class="s" style="fill: none; stroke: rgb(15, 14, 18); stroke-width: 0.5; stroke-linecap: round; stroke-linejoin: round; stroke-miterlimit: 30;" transform="matrix(0.9999999999999999, 0, 0, 0.9999999999999999, -3.552713678800501e-15, 0)"/>
  <circle cx="800.831" cy="45.983" r="2.279" class="f" style="fill: rgb(240, 75, 20);" transform="matrix(0.9999999999999999, 0, 0, 0.9999999999999999, -3.552713678800501e-15, 0)"/>
  <path d="M800.83 45.983l-6.886 6.887" class="s" style="stroke-width: 0.5; stroke-linecap: round; stroke-linejoin: round; stroke-miterlimit: 30; fill: none; stroke: rgb(240, 75, 20);" transform="matrix(0.9999999999999999, 0, 0, 0.9999999999999999, -3.552713678800501e-15, 0)"/>
  <path d="M 842.819 294.326 L 841.442 290.051 L 842.081 290.051 L 843.125 293.588 L 843.584 292.184 L 844.286 290.051 L 844.682 290.051 L 845.33 292.175 L 845.771 293.579 L 846.887 290.051 L 847.463 290.051 L 846.014 294.326 L 845.483 294.326 L 844.457 290.987 L 843.35 294.326 Z M 850.919 291.833 Q 850.901 290.402 849.776 290.402 Q 849.2 290.402 848.912 290.825 Q 848.624 291.221 848.57 291.833 Z M 851.09 290.546 Q 851.486 291.104 851.486 291.977 Q 851.486 292.148 851.477 292.22 L 848.561 292.22 Q 848.561 292.985 848.849 293.453 Q 849.164 293.984 849.812 293.984 Q 850.649 293.984 850.892 293.246 L 851.351 293.354 Q 851.252 293.696 851.013 293.948 Q 850.775 294.2 850.469 294.308 Q 850.19 294.407 849.83 294.425 L 849.812 294.425 Q 848.858 294.425 848.39 293.741 Q 847.958 293.129 847.958 292.184 Q 847.958 291.176 848.448 290.568 Q 848.939 289.961 849.794 289.961 Q 850.667 289.961 851.09 290.546 Z M 852.377 288.089 L 852.971 288.089 L 852.971 289.727 L 852.971 290.717 Q 853.34 289.961 854.321 289.961 Q 855.086 289.961 855.522 290.564 Q 855.959 291.167 855.959 292.229 Q 855.959 293.237 855.513 293.831 Q 855.068 294.425 854.276 294.425 Q 853.808 294.425 853.448 294.222 Q 853.088 294.02 852.926 293.651 L 852.845 294.326 L 852.377 294.326 Z M 853.529 290.627 Q 853.178 290.897 853.034 291.437 Q 852.953 291.752 852.953 292.148 Q 852.953 294.002 854.213 294.002 Q 854.744 294.002 855.05 293.502 Q 855.356 293.003 855.356 292.157 Q 855.356 291.392 855.036 290.897 Q 854.717 290.402 854.204 290.402 Q 853.826 290.402 853.529 290.627 Z" style="fill: rgb(16, 14, 20); text-wrap-mode: nowrap;" transform="matrix(0.9999999999999999, 0, 0, 0.9999999999999999, -3.552713678800501e-15, 0)"/>
</svg>