<?xml version="1.0" encoding="utf-8"?>
<svg xmlns="http://www.w3.org/2000/svg" viewBox="52.113 71.879 300 120" width="300px" height="120px">
  <ellipse style="" cx="112.113" cy="131.879" rx="60" ry="60" transform="matrix(0.9999999999999999, 0, 0, 0.9999999999999999, -7.105427357601002e-15, -7.105427357601002e-15)"/>
  <rect x="112.113" width="180" height="120" style="" y="71.879" transform="matrix(0.9999999999999999, 0, 0, 0.9999999999999999, -7.105427357601002e-15, -7.105427357601002e-15)"/>
  <rect x="292.113" y="91.879" width="60" height="80" style="stroke: rgb(0, 0, 0); fill: rgb(174, 174, 174);" transform="matrix(0.9999999999999999, 0, 0, 0.9999999999999999, -7.105427357601002e-15, -7.105427357601002e-15)"/>
  <rect x="322.113" y="106.879" width="15" height="15" style="" transform="matrix(0.9999999999999999, 0, 0, 0.9999999999999999, -7.105427357601002e-15, -7.105427357601002e-15)"/>
  <rect x="322.113" y="141.879" width="15" height="15" style="stroke-width: 1;" transform="matrix(0.9999999999999999, 0, 0, 0.9999999999999999, -7.105427357601002e-15, -7.105427357601002e-15)"/>
</svg>