<?xml version="1.0" encoding="utf-8"?>
<svg xmlns="http://www.w3.org/2000/svg" viewBox="0 0 128 128" width="128px" height="128px">
  <path d="M 68.2 117.653 Q 56.8 117.653 46.9 113.528 Q 37 109.403 29.5 102.053 Q 22 94.703 17.875 84.878 Q 13.75 75.053 13.75 63.653 Q 13.75 52.403 17.875 42.653 Q 22 32.903 29.425 25.628 Q 36.85 18.353 46.75 14.303 Q 56.65 10.253 68.05 10.253 Q 76 10.253 83.575 12.503 Q 91.15 14.753 97.3 18.803 Q 103.45 22.853 107.35 28.103 L 96.85 39.053 Q 92.35 34.703 87.625 31.853 Q 82.9 29.003 77.95 27.503 Q 73 26.003 68.05 26.003 Q 59.95 26.003 53.125 28.853 Q 46.3 31.703 41.125 36.803 Q 35.95 41.903 33.1 48.728 Q 30.25 55.553 30.25 63.653 Q 30.25 71.453 33.25 78.428 Q 36.25 85.403 41.575 90.653 Q 46.9 95.903 53.875 98.903 Q 60.85 101.903 68.65 101.903 Q 74.5 101.903 79.75 100.178 Q 85 98.453 89.05 95.303 Q 93.1 92.153 95.35 88.028 Q 97.6 83.903 97.6 79.253 L 97.6 76.253 L 99.85 78.353 L 67.75 78.353 L 67.75 62.303 L 114.25 62.303 Q 114.55 63.953 114.7 65.528 Q 114.85 67.103 114.925 68.528 Q 115 69.953 115 71.303 Q 115 81.653 111.4 90.128 Q 107.8 98.603 101.425 104.753 Q 95.05 110.903 86.575 114.278 Q 78.1 117.653 68.2 117.653 Z" transform="matrix(0.707107, 0.707107, -0.707107, 0.707107, 61.171797, -27.681397)" style="fill: rgb(0, 0, 255); text-wrap-mode: nowrap;"/>
</svg>